<svg width="698" height="312" viewBox="0 0 698 312" fill="none" xmlns="http://www.w3.org/2000/svg">
<path fill-rule="evenodd" clip-rule="evenodd" d="M62.3354 128.082L105.062 90.3118L105.075 90.3003C106.188 89.2833 107.089 88.2411 107.653 87.1878C108.21 86.1453 108.57 84.8214 108.079 83.4838C107.583 82.1322 106.438 81.3647 105.319 80.9537C104.197 80.542 102.831 80.3765 101.328 80.3765H69.3875C68.68 80.3765 67.9537 80.5139 67.3067 80.7404C66.6968 80.9538 65.9978 81.3024 65.4359 81.847L25.5652 118.137V61.219C25.5652 59.6689 25.0392 58.2113 23.9637 57.1357C22.8881 56.0602 21.4304 55.5342 19.8804 55.5342H5.68481C4.13476 55.5342 2.67707 56.0602 1.60154 57.1357C0.526005 58.2113 0 59.6689 0 61.219V178.333C0 179.883 0.526009 181.34 1.60154 182.416C2.67707 183.491 4.13476 184.017 5.68481 184.017H19.8804C21.4304 184.017 22.8881 183.491 23.9637 182.416C25.0392 181.34 25.5652 179.883 25.5652 178.333V160.299L42.4897 145.098L78.4259 182.226C79.0332 182.966 79.8538 183.387 80.502 183.623C81.2197 183.884 81.9988 184.017 82.6959 184.017H101.682C103.027 184.017 104.276 183.859 105.332 183.47C106.389 183.08 107.438 182.384 108.001 181.206C108.576 180.005 108.439 178.737 108.011 177.653C107.591 176.592 106.843 175.556 105.898 174.56L105.893 174.555L62.3354 128.082ZM2.13591 61.219C2.13591 59.0897 3.55547 57.6701 5.68481 57.6701H19.8804C21.7435 57.6701 23.0633 58.757 23.3641 60.4551C23.0633 58.7569 21.7436 57.6701 19.8804 57.6701H5.68481C3.55547 57.6701 2.13591 59.0897 2.13591 61.219V61.219ZM123.586 85.6728L123.559 85.6835L123.532 85.6951C121.769 86.4507 120.138 88.129 120.108 90.4337L118.871 114.133L118.869 114.149C118.77 115.671 118.939 117.203 119.691 118.43C120.54 119.815 121.934 120.492 123.486 120.492C124.565 120.492 125.777 120.22 127.103 119.557L127.128 119.544C137.479 114.196 149.565 110.2 169.267 110.2C179.744 110.2 187.41 111.267 192.738 113.613C196.681 115.348 199.35 117.78 200.952 121.125C193.975 119.764 184.931 118.882 175.3 118.882C161.503 118.882 146.355 120.711 134.572 125.8C122.743 130.909 113.897 139.534 113.897 153.135C113.897 163.346 117.443 171.887 125.283 177.798C133.018 183.629 144.647 186.679 160.395 186.679C182.032 186.679 196.851 175.912 203.644 164.753L205.292 179.077L205.294 179.095C205.599 182.053 208.028 184.017 210.966 184.017H222.855C224.405 184.017 225.863 183.491 226.938 182.416C228.014 181.34 228.54 179.883 228.54 178.333L228.54 125.986L228.54 125.973C228.448 111.314 223.757 99.1342 213.961 90.6567C204.211 82.2192 189.708 77.7148 170.509 77.7148C151.454 77.7148 134.15 81.4836 123.586 85.6728ZM202.961 137.354L202.975 137.355V139.117C202.975 140.322 202.398 141.792 200.904 143.411C199.415 145.024 197.121 146.659 194.019 148.12C187.822 151.04 178.698 153.129 167.315 153.129C157.774 153.129 151.049 152.414 146.774 151.017C144.647 150.321 143.296 149.51 142.496 148.686C141.751 147.919 141.414 147.077 141.414 146.038C141.414 144.637 142.188 143.287 144.247 141.961C146.335 140.617 149.444 139.52 153.329 138.676C161.064 136.995 171.172 136.462 180.446 136.462C187.046 136.462 193.168 136.726 197.643 136.991C199.879 137.123 201.7 137.255 202.961 137.354ZM355.096 85.6728L355.069 85.6835L355.042 85.6951C353.278 86.4508 351.648 88.1294 351.618 90.4345L350.381 114.133L350.38 114.149C350.28 115.671 350.449 117.203 351.201 118.43C352.05 119.815 353.444 120.492 354.996 120.492C356.075 120.492 357.287 120.22 358.613 119.557L358.638 119.544C368.989 114.196 381.075 110.2 400.777 110.2C411.254 110.2 418.92 111.267 424.248 113.613C428.191 115.348 430.86 117.78 432.462 121.125C425.485 119.764 416.441 118.882 406.81 118.882C393.013 118.882 377.865 120.711 366.082 125.8C354.253 130.909 345.407 139.534 345.407 153.135C345.407 163.346 348.953 171.887 356.793 177.798C364.528 183.629 376.157 186.679 391.905 186.679C413.542 186.679 428.361 175.912 435.154 164.753L436.802 179.077L436.804 179.095C437.109 182.053 439.538 184.017 442.476 184.017H454.365C455.915 184.017 457.373 183.491 458.448 182.416C459.524 181.34 460.05 179.883 460.05 178.333L460.05 125.986L460.05 125.973C459.958 111.314 455.267 99.1342 445.471 90.6567C435.721 82.2192 421.218 77.7148 402.019 77.7148C382.964 77.7148 365.66 81.4836 355.096 85.6728ZM398.825 153.129C389.284 153.129 382.559 152.414 378.284 151.017C376.157 150.321 374.806 149.51 374.006 148.686C373.261 147.919 372.924 147.077 372.924 146.038C372.924 144.637 373.698 143.287 375.757 141.961C377.845 140.617 380.954 139.52 384.839 138.676C392.574 136.995 402.682 136.462 411.956 136.462C418.556 136.462 424.678 136.726 429.153 136.991C431.389 137.123 433.211 137.255 434.471 137.354L434.485 137.355V139.117C434.485 140.322 433.908 141.792 432.414 143.411C430.925 145.024 428.631 146.659 425.529 148.12C419.332 151.04 410.208 153.129 398.825 153.129ZM574.298 86.4048L574.274 86.3946L574.25 86.3849C564.274 82.3942 548.212 77.8922 527.144 77.8922C508.158 77.8922 493.387 83.7153 483.353 93.5165C473.322 103.315 468.226 116.895 468.226 132.019C468.226 146.997 472.04 160.764 482.073 170.773C492.105 180.782 508.001 186.679 531.402 186.679C544.036 186.679 561.003 184.163 574.269 178.711L574.284 178.705L574.298 178.699C576.281 177.849 577.722 175.864 577.722 173.542V149.764C577.722 147.801 577.117 145.83 575.429 144.719C573.747 143.612 571.719 143.84 569.963 144.603C559.247 148.994 548.195 153.129 530.515 153.129C523.688 153.129 513.845 152.377 505.787 149.217C501.773 147.643 498.327 145.52 495.898 142.713C493.505 139.947 492.016 136.429 492.016 131.842C492.016 124.4 497.094 119.466 504.619 116.287C512.136 113.111 521.539 111.975 528.741 111.975C542.973 111.975 558.837 115.808 569.425 120.321L569.447 120.33L569.47 120.339C570.561 120.776 571.718 121.024 572.747 121.024C574.207 121.024 575.651 120.535 576.661 119.262C577.597 118.082 577.9 116.545 577.9 114.985L577.722 91.5621V91.5536C577.719 89.2353 576.278 87.2534 574.298 86.4048ZM591.696 55.5342C590.146 55.5342 588.689 56.0602 587.613 57.1357C586.538 58.2113 586.011 59.6689 586.011 61.219V178.333C586.011 179.883 586.538 181.34 587.613 182.416C588.689 183.491 590.146 184.017 591.696 184.017H605.892C607.442 184.017 608.9 183.491 609.975 182.416C611.051 181.34 611.577 179.883 611.577 178.333V143.943C611.835 135.968 614.56 128.968 619.325 123.979C624.076 119.005 630.997 115.879 639.961 115.879C650.522 115.879 658.403 117.356 663.659 121.498C668.79 125.541 671.895 132.526 671.895 144.795V178.333C671.895 179.883 672.421 181.34 673.496 182.416C674.572 183.491 676.03 184.017 677.58 184.017H691.775C693.325 184.017 694.783 183.491 695.858 182.416C696.934 181.34 697.46 179.883 697.46 178.333V127.761C697.46 113.22 693.688 100.651 685.377 91.7053C677.041 82.7315 664.43 77.7148 647.414 77.7148C633.582 77.7148 618.997 82.2836 611.577 94.173V61.219C611.577 59.6689 611.051 58.2113 609.975 57.1357C608.9 56.0602 607.442 55.5342 605.892 55.5342H591.696Z" fill="black"/>
<path d="M209.251 210.436L208.757 202.318C209.029 202.07 208.968 201.745 208.959 201.432C208.853 198.5 209.344 195.608 210.215 192.858C213.097 183.753 219.93 178.95 228.705 176.422C229.756 176.121 229.902 175.573 229.488 174.761C227.994 171.831 226.707 168.832 225.693 165.683C224.306 161.385 224.867 157.436 226.994 153.561C229.039 149.845 231.797 146.713 235.014 144.035C239.317 140.454 244.197 139.088 249.769 140.737C252.003 141.397 254.107 142.374 256.316 143.133C256.493 142.578 256.042 142.343 255.903 141.997C254.488 138.508 253.053 135.029 251.623 131.546C250.265 128.223 248.901 124.899 247.553 121.57C246.181 118.191 244.814 114.812 243.452 111.427C242.471 108.995 241.476 106.569 240.546 104.118C239.334 100.925 238.167 97.7179 237.006 94.5057C235.992 91.7007 234.898 88.9211 234.031 86.0661C232.924 82.4036 231.787 78.7482 230.983 74.9902C230.122 70.9788 229.963 67.0223 230.874 63.0006C232.384 56.3325 236.18 51.7702 242.901 50.0147C245.187 49.4182 247.604 49.1169 249.929 49.9257C251.787 50.5728 253.349 51.762 254.782 53.0928C260.583 58.5037 264.549 65.2492 268.421 72.0467C271.009 76.5899 273.34 81.2772 275.59 85.9952C277.728 90.4836 279.911 94.9487 281.8 99.55C283.35 103.329 285.001 107.066 286.572 110.839C287.968 114.196 289.275 117.595 290.711 120.934C291.292 122.291 291.65 123.78 292.714 125.138C293.319 123.257 293.916 121.597 294.388 119.904C295.785 114.907 297.003 109.86 298.535 104.906C300.106 99.8168 301.676 94.7274 303.382 89.6759C306.129 81.5556 309.166 73.5563 312.952 65.8659C315.183 61.3373 317.689 56.9308 321.171 53.2045C324.205 49.9526 327.655 47.7335 332.477 48.3646C337.624 49.0323 341.569 51.3762 344.293 55.7775C347.257 60.5753 347.604 65.8561 347.165 71.2979C346.836 75.3509 346.062 79.3283 345.364 83.3165C344.819 86.422 343.993 89.4778 343.292 92.5568C342.522 95.938 341.819 99.3357 340.966 102.696C339.909 106.86 338.67 110.979 337.619 115.143C336.569 119.322 335.387 123.458 334.18 127.59C333.282 130.656 332.458 133.742 331.593 136.831C334.254 137.25 336.81 137.793 339.318 138.642C344.406 140.361 348.577 143.22 351.55 147.75C355.158 153.254 356.67 159.512 357.396 165.864C358.121 172.211 358.589 178.625 358.41 185.042C358.312 188.501 358.086 191.957 357.59 195.362C357.021 199.271 356.241 203.156 355.18 206.986C353.622 212.625 351.526 218.029 348.779 223.185C344.661 230.906 339.438 237.774 333.097 243.822C327.97 248.712 322.264 252.8 315.964 255.978C308.971 259.508 301.558 261.876 293.803 263.185C292.415 263.419 290.946 263.262 289.629 263.912L277.995 264.621C277.664 264.246 277.238 264.426 276.848 264.439C273.838 264.53 270.839 264.215 267.893 263.757C263.822 263.126 259.815 262.127 255.856 260.889C248.853 258.695 242.333 255.563 236.467 251.204C226.689 243.929 218.362 235.348 213.296 224.035C212.041 221.235 211.013 218.353 210.311 215.345C209.928 213.708 209.815 212.015 209.25 210.421L209.251 210.436ZM280.281 213.008C277.712 215.456 274.962 215.429 272.174 215.033C270.65 214.818 270.512 214.991 270.916 216.564C271.752 219.827 272.012 223.094 270.411 226.238C266.631 233.676 258.685 235.994 250.981 233.746C246.995 232.581 243.448 230.614 240.196 228.079C234.403 223.566 229.273 218.551 227.606 210.993C227.123 208.797 227.202 206.65 228.239 204.614C228.533 204.041 228.761 203.817 229.383 204.498C231.755 207.087 234.034 209.748 236.308 212.42C239.773 216.494 243.526 220.257 248.543 222.407C252.019 223.896 255.466 224.138 258.654 221.56C260.666 219.932 261.142 218.377 260.443 216.015C259.835 213.971 258.671 212.229 257.562 210.473C254.288 205.303 250.224 200.747 246.083 196.273C242.964 192.902 239.773 189.593 235.893 187.045C233.244 185.305 230.622 184.946 227.752 186.58C222.881 189.348 220.337 193.803 219.219 198.983C217.985 204.699 219.215 210.296 221.4 215.64C223.513 220.803 226.445 225.505 229.882 229.894C233.894 235.018 238.37 239.678 243.753 243.377C250.885 248.276 258.674 251.582 267.228 253.183C271.386 253.963 275.568 254.386 279.751 254.409C287.368 254.453 294.875 253.297 302.105 250.868C306.823 249.286 311.292 247.082 315.488 244.361C322.357 239.904 328.108 234.277 332.996 227.743C337.348 221.929 340.827 215.624 343.236 208.783C345.216 203.155 346.522 197.367 347.228 191.406C347.717 187.297 347.995 183.175 347.925 179.074C347.8 172.12 347.305 165.174 345.154 158.456C343.948 154.682 342.005 151.553 338.476 149.543C335.81 148.021 332.96 146.956 330.043 146.045C326.173 144.832 322.213 144.009 318.242 143.26C315.098 142.67 311.909 142.269 308.731 141.892C305.668 141.529 302.592 141.3 299.52 141.051C296.339 140.792 293.139 140.633 289.989 140.707C284.956 140.823 279.869 140.552 274.895 141.559C272.551 142.036 270.418 143.122 269.702 145.698C268.311 150.699 270.457 156.498 274.416 159.668C278.71 163.105 283.896 164.243 289.141 165.074C291.735 165.487 294.371 165.655 297.006 165.828C300.509 166.062 304.014 166.167 307.504 166.103C312.831 166.005 318.145 165.527 323.469 165.213C326.57 165.024 328.645 166.439 329.432 169.407C329.672 170.306 330.228 171.264 329.024 172.154C326.585 173.957 323.962 175.417 321.24 176.698C317.474 178.473 313.652 180.155 310.25 182.587C302.485 188.131 296.877 195.418 293.067 204.128C291.61 207.458 290.646 210.944 290.44 214.558C290.084 220.785 292.134 226.507 294.476 232.149C295.433 234.454 296.346 236.783 296.282 239.371C296.261 240.281 296.055 240.525 295.101 240.393C291.096 239.841 288.17 237.676 285.903 234.46C282.793 230.046 281.513 224.971 280.707 219.759C280.385 217.677 280.42 215.543 280.265 213.009L280.281 213.008ZM239.742 69.4269C239.943 70.5346 240.183 72.3644 240.61 74.1417C241.743 78.8198 243.259 83.377 244.875 87.9074C246.159 91.5129 247.527 95.0824 248.9 98.6515C250.396 102.547 252.003 106.4 253.614 110.253C255.394 114.511 257.21 118.757 259.06 122.986C260.696 126.724 262.401 130.437 264.067 134.163C264.335 134.769 264.629 134.961 265.116 134.356C266.321 132.87 268.06 132.332 269.809 132.113C273.797 131.618 277.81 132.052 281.81 132.106C283.111 132.125 283.573 131.701 283.082 130.467C282.396 128.731 281.609 127.037 280.873 125.32C279.615 122.381 278.352 119.442 277.124 116.491C275.518 112.643 273.952 108.783 272.351 104.934C270.985 101.658 269.584 98.3984 268.223 95.1213C266.645 91.3129 265.142 87.4742 263.514 83.6893C261.623 79.2938 259.672 74.9275 257.481 70.6684C255.878 67.5499 254.256 64.448 251.768 61.9023C248.256 58.3042 243.342 58.5265 240.892 62.4879C239.727 64.3724 239.55 66.5256 239.731 69.4172L239.742 69.4269ZM330.116 58.8658C329.375 59.0907 328.487 59.186 327.694 59.6658C325.37 61.0661 323.887 63.2063 322.603 65.4886C318.885 72.096 316.845 79.3461 314.689 86.5365C313.327 91.084 312.211 95.7039 310.938 100.277C309.69 104.761 308.354 109.225 307.112 113.713C305.558 119.316 304.082 124.939 302.522 130.541C301.861 132.924 301.898 133.03 304.319 133.227C309.436 133.65 314.529 134.264 319.615 134.936C320.288 135.023 320.753 134.979 320.836 134.137C320.876 133.708 321.155 133.306 321.283 132.876C322.557 128.494 323.826 124.106 325.095 119.723C326.072 116.355 327.08 113.001 328.014 109.625C329.165 105.481 330.263 101.324 331.366 97.1674C332.184 94.0761 333.019 90.9889 333.759 87.8767C334.724 83.8208 335.653 79.7569 336.515 75.6817C337.273 72.1009 338.121 68.4786 337.235 64.813C336.258 60.7522 334.12 58.8992 330.122 58.8706L330.116 58.8658ZM273.34 204.667C274.067 204.53 274.784 204.671 275.458 204.255C279.003 202.061 280.843 198.707 279.045 193.982C277.198 189.132 275.115 184.373 272.703 179.788C269.414 173.531 265.728 167.503 261.459 161.854C258.514 157.955 255.307 154.312 250.91 151.965C248.186 150.513 245.299 150.005 242.587 151.794C239.811 153.623 237.737 156.184 236.346 159.233C235.463 161.178 235.623 163.223 236.274 165.141C237.579 169.017 239.697 172.495 241.944 175.892C245.096 180.663 248.763 185.028 252.523 189.325C256.913 194.339 261.606 199.016 267.275 202.585C269.101 203.733 271.035 204.853 273.341 204.677L273.34 204.667ZM288.679 191.309C292.667 185.585 297.346 180.758 302.911 176.309C300.669 176.44 298.813 176.086 296.951 176.055C293.146 176 289.41 175.472 285.69 174.712C284.473 174.463 283.248 174.255 282.027 174.036C281.346 173.913 280.934 174.067 281.169 174.885C281.28 175.269 281.394 175.621 281.591 175.995C283.431 179.381 285.181 182.804 286.623 186.395C287.264 187.984 287.581 189.727 288.679 191.315L288.679 191.309Z" fill="black"/>
<mask id="path-3-outside-1_72_4729" maskUnits="userSpaceOnUse" x="206.949" y="50.3259" width="149.091" height="210.955" fill="black">
<rect fill="white" x="206.949" y="50.3259" width="149.091" height="210.955"/>
<path d="M280.422 213.728C280.407 213.414 280.027 213.262 279.782 213.458C277.386 215.376 274.845 215.325 272.272 214.96C270.749 214.744 270.61 214.917 271.014 216.49C271.85 219.753 272.111 223.02 270.509 226.164C266.729 233.603 258.784 235.921 251.079 233.673C247.093 232.508 243.547 230.54 240.294 228.005C234.502 223.493 229.372 218.478 227.704 210.919C227.221 208.724 227.301 206.577 228.338 204.541C228.632 203.968 228.86 203.743 229.482 204.425C231.854 207.014 234.133 209.675 236.407 212.346C239.871 216.42 243.625 220.183 248.642 222.333C252.118 223.822 255.565 224.064 258.752 221.486C260.765 219.858 261.24 218.304 260.541 215.942C259.934 213.898 258.769 212.155 257.661 210.399C254.386 205.23 250.323 200.674 246.181 196.199C243.063 192.829 239.871 189.52 235.991 186.971C233.342 185.232 230.721 184.873 227.851 186.507C222.979 189.275 220.435 193.73 219.318 198.91C218.084 204.626 219.313 210.223 221.499 215.567C223.611 220.73 226.544 225.432 229.981 229.82C233.992 234.945 238.468 239.604 243.852 243.304C250.983 248.202 258.773 251.509 267.327 253.11C271.484 253.889 275.666 254.312 279.85 254.335C287.466 254.38 294.974 253.224 302.204 250.795C306.921 249.213 311.39 247.009 315.586 244.287C322.456 239.831 328.206 234.204 333.095 227.669C337.447 221.855 340.926 215.55 343.335 208.709C345.314 203.081 346.621 197.294 347.326 191.332C347.816 187.223 348.094 183.101 348.024 179.001C347.898 172.047 347.168 166.461 345.017 159.744C343.811 155.969 341.869 152.841 338.34 150.831C335.673 149.309 332.824 148.244 329.907 147.333C317.326 143.39 303.033 141.686 289.853 141.994C284.82 142.111 279.967 140.479 274.994 141.486C272.649 141.963 270.517 143.048 269.8 145.625C268.41 150.626 270.556 156.424 274.515 159.594C278.809 163.032 283.995 164.17 289.24 165.001C291.834 165.413 294.469 165.581 297.105 165.755C300.608 165.988 304.113 166.093 307.602 166.03C312.929 165.931 318.243 165.453 323.567 165.139C326.669 164.95 328.743 166.365 329.53 169.333C329.77 170.233 330.327 171.191 329.122 172.081C326.684 173.884 324.06 175.343 321.338 176.624C317.573 178.4 313.75 180.082 310.348 182.513C302.584 188.057 296.976 195.345 293.165 204.054C291.709 207.385 290.745 210.87 290.538 214.484C290.183 220.712 292.232 226.434 294.574 232.076C295.532 234.381 296.444 236.709 296.381 239.297C296.359 240.208 296.153 240.452 295.2 240.32C291.195 239.767 288.268 237.603 286.002 234.386C282.892 229.972 281.612 224.897 280.806 219.685C280.518 217.824 280.527 215.921 280.422 213.728ZM239.841 69.3483C240.042 70.456 240.282 72.2858 240.708 74.0631C241.841 78.7412 243.357 83.2984 244.974 87.8289C246.257 91.4343 247.625 95.0038 248.999 98.5729C250.495 102.469 252.101 106.322 253.713 110.174C255.493 114.433 257.308 118.679 259.158 122.907C260.794 126.645 262.5 130.359 264.165 134.085C264.433 134.69 264.728 134.883 265.215 134.278C266.419 132.791 268.159 132.254 269.907 132.034C273.895 131.54 277.908 131.973 281.908 132.028C283.209 132.046 283.672 131.622 283.18 130.388C282.494 128.653 281.707 126.959 280.971 125.241C279.713 122.302 278.45 119.364 277.222 116.412C275.616 112.564 274.05 108.704 272.449 104.856C271.083 101.579 269.682 98.3198 268.322 95.0427C266.744 91.2343 265.241 87.3956 263.613 83.6108C261.722 79.2152 259.77 74.849 257.579 70.5898C255.976 67.4713 254.354 64.3695 251.866 61.8238C248.354 58.2257 243.441 58.4479 240.99 62.4093C239.825 64.2938 239.648 66.447 239.83 69.3387L239.841 69.3483ZM330.215 58.7872C329.473 59.0122 328.585 59.1074 327.792 59.5872C325.468 60.9875 323.985 63.1278 322.701 65.41C318.983 72.0174 316.943 79.2675 314.787 86.4579C313.425 91.0054 312.309 95.6253 311.036 100.198C309.789 104.682 308.453 109.146 307.21 113.635C305.656 119.237 304.18 124.86 302.62 130.463C301.959 132.846 301.996 132.951 304.418 133.148C309.535 133.571 314.627 134.185 319.713 134.857C320.387 134.944 320.852 134.901 320.934 134.058C320.974 133.629 321.253 133.227 321.381 132.798C322.655 128.415 323.924 124.027 325.193 119.645C326.17 116.277 327.178 112.922 328.113 109.546C329.263 105.402 330.361 101.246 331.464 97.0888C332.283 93.9975 333.117 90.9104 333.857 87.7981C334.823 83.7423 335.751 79.6784 336.613 75.6032C337.371 72.0223 338.219 68.4 337.333 64.7344C336.356 60.6736 334.219 58.8207 330.22 58.792L330.215 58.7872ZM273.439 204.588C274.165 204.451 274.883 204.592 275.556 204.176C279.101 201.982 280.941 198.629 279.143 193.904C277.296 189.053 275.213 184.294 272.802 179.709C269.512 173.452 265.826 167.424 261.557 161.776C258.612 157.876 255.405 154.234 251.008 151.887C248.284 150.434 245.397 149.927 242.685 151.715C239.909 153.544 237.836 156.106 236.444 159.155C235.561 161.099 235.721 163.144 236.373 165.062C237.677 168.939 239.795 172.416 242.042 175.814C245.194 180.585 248.861 184.949 252.622 189.246C257.011 194.26 261.704 198.937 267.373 202.507C269.2 203.654 271.133 204.775 273.439 204.598L273.439 204.588Z"/>
</mask>
<path d="M280.422 213.728C280.407 213.414 280.027 213.262 279.782 213.458C277.386 215.376 274.845 215.325 272.272 214.96C270.749 214.744 270.61 214.917 271.014 216.49C271.85 219.753 272.111 223.02 270.509 226.164C266.729 233.603 258.784 235.921 251.079 233.673C247.093 232.508 243.547 230.54 240.294 228.005C234.502 223.493 229.372 218.478 227.704 210.919C227.221 208.724 227.301 206.577 228.338 204.541C228.632 203.968 228.86 203.743 229.482 204.425C231.854 207.014 234.133 209.675 236.407 212.346C239.871 216.42 243.625 220.183 248.642 222.333C252.118 223.822 255.565 224.064 258.752 221.486C260.765 219.858 261.24 218.304 260.541 215.942C259.934 213.898 258.769 212.155 257.661 210.399C254.386 205.23 250.323 200.674 246.181 196.199C243.063 192.829 239.871 189.52 235.991 186.971C233.342 185.232 230.721 184.873 227.851 186.507C222.979 189.275 220.435 193.73 219.318 198.91C218.084 204.626 219.313 210.223 221.499 215.567C223.611 220.73 226.544 225.432 229.981 229.82C233.992 234.945 238.468 239.604 243.852 243.304C250.983 248.202 258.773 251.509 267.327 253.11C271.484 253.889 275.666 254.312 279.85 254.335C287.466 254.38 294.974 253.224 302.204 250.795C306.921 249.213 311.39 247.009 315.586 244.287C322.456 239.831 328.206 234.204 333.095 227.669C337.447 221.855 340.926 215.55 343.335 208.709C345.314 203.081 346.621 197.294 347.326 191.332C347.816 187.223 348.094 183.101 348.024 179.001C347.898 172.047 347.168 166.461 345.017 159.744C343.811 155.969 341.869 152.841 338.34 150.831C335.673 149.309 332.824 148.244 329.907 147.333C317.326 143.39 303.033 141.686 289.853 141.994C284.82 142.111 279.967 140.479 274.994 141.486C272.649 141.963 270.517 143.048 269.8 145.625C268.41 150.626 270.556 156.424 274.515 159.594C278.809 163.032 283.995 164.17 289.24 165.001C291.834 165.413 294.469 165.581 297.105 165.755C300.608 165.988 304.113 166.093 307.602 166.03C312.929 165.931 318.243 165.453 323.567 165.139C326.669 164.95 328.743 166.365 329.53 169.333C329.77 170.233 330.327 171.191 329.122 172.081C326.684 173.884 324.06 175.343 321.338 176.624C317.573 178.4 313.75 180.082 310.348 182.513C302.584 188.057 296.976 195.345 293.165 204.054C291.709 207.385 290.745 210.87 290.538 214.484C290.183 220.712 292.232 226.434 294.574 232.076C295.532 234.381 296.444 236.709 296.381 239.297C296.359 240.208 296.153 240.452 295.2 240.32C291.195 239.767 288.268 237.603 286.002 234.386C282.892 229.972 281.612 224.897 280.806 219.685C280.518 217.824 280.527 215.921 280.422 213.728ZM239.841 69.3483C240.042 70.456 240.282 72.2858 240.708 74.0631C241.841 78.7412 243.357 83.2984 244.974 87.8289C246.257 91.4343 247.625 95.0038 248.999 98.5729C250.495 102.469 252.101 106.322 253.713 110.174C255.493 114.433 257.308 118.679 259.158 122.907C260.794 126.645 262.5 130.359 264.165 134.085C264.433 134.69 264.728 134.883 265.215 134.278C266.419 132.791 268.159 132.254 269.907 132.034C273.895 131.54 277.908 131.973 281.908 132.028C283.209 132.046 283.672 131.622 283.18 130.388C282.494 128.653 281.707 126.959 280.971 125.241C279.713 122.302 278.45 119.364 277.222 116.412C275.616 112.564 274.05 108.704 272.449 104.856C271.083 101.579 269.682 98.3198 268.322 95.0427C266.744 91.2343 265.241 87.3956 263.613 83.6108C261.722 79.2152 259.77 74.849 257.579 70.5898C255.976 67.4713 254.354 64.3695 251.866 61.8238C248.354 58.2257 243.441 58.4479 240.99 62.4093C239.825 64.2938 239.648 66.447 239.83 69.3387L239.841 69.3483ZM330.215 58.7872C329.473 59.0122 328.585 59.1074 327.792 59.5872C325.468 60.9875 323.985 63.1278 322.701 65.41C318.983 72.0174 316.943 79.2675 314.787 86.4579C313.425 91.0054 312.309 95.6253 311.036 100.198C309.789 104.682 308.453 109.146 307.21 113.635C305.656 119.237 304.18 124.86 302.62 130.463C301.959 132.846 301.996 132.951 304.418 133.148C309.535 133.571 314.627 134.185 319.713 134.857C320.387 134.944 320.852 134.901 320.934 134.058C320.974 133.629 321.253 133.227 321.381 132.798C322.655 128.415 323.924 124.027 325.193 119.645C326.17 116.277 327.178 112.922 328.113 109.546C329.263 105.402 330.361 101.246 331.464 97.0888C332.283 93.9975 333.117 90.9104 333.857 87.7981C334.823 83.7423 335.751 79.6784 336.613 75.6032C337.371 72.0223 338.219 68.4 337.333 64.7344C336.356 60.6736 334.219 58.8207 330.22 58.792L330.215 58.7872ZM273.439 204.588C274.165 204.451 274.883 204.592 275.556 204.176C279.101 201.982 280.941 198.629 279.143 193.904C277.296 189.053 275.213 184.294 272.802 179.709C269.512 173.452 265.826 167.424 261.557 161.776C258.612 157.876 255.405 154.234 251.008 151.887C248.284 150.434 245.397 149.927 242.685 151.715C239.909 153.544 237.836 156.106 236.444 159.155C235.561 161.099 235.721 163.144 236.373 165.062C237.677 168.939 239.795 172.416 242.042 175.814C245.194 180.585 248.861 184.949 252.622 189.246C257.011 194.26 261.704 198.937 267.373 202.507C269.2 203.654 271.133 204.775 273.439 204.598L273.439 204.588Z" fill="white"/>
<path d="M280.422 213.728C280.407 213.414 280.027 213.262 279.782 213.458C277.386 215.376 274.845 215.325 272.272 214.96C270.749 214.744 270.61 214.917 271.014 216.49C271.85 219.753 272.111 223.02 270.509 226.164C266.729 233.603 258.784 235.921 251.079 233.673C247.093 232.508 243.547 230.54 240.294 228.005C234.502 223.493 229.372 218.478 227.704 210.919C227.221 208.724 227.301 206.577 228.338 204.541C228.632 203.968 228.86 203.743 229.482 204.425C231.854 207.014 234.133 209.675 236.407 212.346C239.871 216.42 243.625 220.183 248.642 222.333C252.118 223.822 255.565 224.064 258.752 221.486C260.765 219.858 261.24 218.304 260.541 215.942C259.934 213.898 258.769 212.155 257.661 210.399C254.386 205.23 250.323 200.674 246.181 196.199C243.063 192.829 239.871 189.52 235.991 186.971C233.342 185.232 230.721 184.873 227.851 186.507C222.979 189.275 220.435 193.73 219.318 198.91C218.084 204.626 219.313 210.223 221.499 215.567C223.611 220.73 226.544 225.432 229.981 229.82C233.992 234.945 238.468 239.604 243.852 243.304C250.983 248.202 258.773 251.509 267.327 253.11C271.484 253.889 275.666 254.312 279.85 254.335C287.466 254.38 294.974 253.224 302.204 250.795C306.921 249.213 311.39 247.009 315.586 244.287C322.456 239.831 328.206 234.204 333.095 227.669C337.447 221.855 340.926 215.55 343.335 208.709C345.314 203.081 346.621 197.294 347.326 191.332C347.816 187.223 348.094 183.101 348.024 179.001C347.898 172.047 347.168 166.461 345.017 159.744C343.811 155.969 341.869 152.841 338.34 150.831C335.673 149.309 332.824 148.244 329.907 147.333C317.326 143.39 303.033 141.686 289.853 141.994C284.82 142.111 279.967 140.479 274.994 141.486C272.649 141.963 270.517 143.048 269.8 145.625C268.41 150.626 270.556 156.424 274.515 159.594C278.809 163.032 283.995 164.17 289.24 165.001C291.834 165.413 294.469 165.581 297.105 165.755C300.608 165.988 304.113 166.093 307.602 166.03C312.929 165.931 318.243 165.453 323.567 165.139C326.669 164.95 328.743 166.365 329.53 169.333C329.77 170.233 330.327 171.191 329.122 172.081C326.684 173.884 324.06 175.343 321.338 176.624C317.573 178.4 313.75 180.082 310.348 182.513C302.584 188.057 296.976 195.345 293.165 204.054C291.709 207.385 290.745 210.87 290.538 214.484C290.183 220.712 292.232 226.434 294.574 232.076C295.532 234.381 296.444 236.709 296.381 239.297C296.359 240.208 296.153 240.452 295.2 240.32C291.195 239.767 288.268 237.603 286.002 234.386C282.892 229.972 281.612 224.897 280.806 219.685C280.518 217.824 280.527 215.921 280.422 213.728ZM239.841 69.3483C240.042 70.456 240.282 72.2858 240.708 74.0631C241.841 78.7412 243.357 83.2984 244.974 87.8289C246.257 91.4343 247.625 95.0038 248.999 98.5729C250.495 102.469 252.101 106.322 253.713 110.174C255.493 114.433 257.308 118.679 259.158 122.907C260.794 126.645 262.5 130.359 264.165 134.085C264.433 134.69 264.728 134.883 265.215 134.278C266.419 132.791 268.159 132.254 269.907 132.034C273.895 131.54 277.908 131.973 281.908 132.028C283.209 132.046 283.672 131.622 283.18 130.388C282.494 128.653 281.707 126.959 280.971 125.241C279.713 122.302 278.45 119.364 277.222 116.412C275.616 112.564 274.05 108.704 272.449 104.856C271.083 101.579 269.682 98.3198 268.322 95.0427C266.744 91.2343 265.241 87.3956 263.613 83.6108C261.722 79.2152 259.77 74.849 257.579 70.5898C255.976 67.4713 254.354 64.3695 251.866 61.8238C248.354 58.2257 243.441 58.4479 240.99 62.4093C239.825 64.2938 239.648 66.447 239.83 69.3387L239.841 69.3483ZM330.215 58.7872C329.473 59.0122 328.585 59.1074 327.792 59.5872C325.468 60.9875 323.985 63.1278 322.701 65.41C318.983 72.0174 316.943 79.2675 314.787 86.4579C313.425 91.0054 312.309 95.6253 311.036 100.198C309.789 104.682 308.453 109.146 307.21 113.635C305.656 119.237 304.18 124.86 302.62 130.463C301.959 132.846 301.996 132.951 304.418 133.148C309.535 133.571 314.627 134.185 319.713 134.857C320.387 134.944 320.852 134.901 320.934 134.058C320.974 133.629 321.253 133.227 321.381 132.798C322.655 128.415 323.924 124.027 325.193 119.645C326.17 116.277 327.178 112.922 328.113 109.546C329.263 105.402 330.361 101.246 331.464 97.0888C332.283 93.9975 333.117 90.9104 333.857 87.7981C334.823 83.7423 335.751 79.6784 336.613 75.6032C337.371 72.0223 338.219 68.4 337.333 64.7344C336.356 60.6736 334.219 58.8207 330.22 58.792L330.215 58.7872ZM273.439 204.588C274.165 204.451 274.883 204.592 275.556 204.176C279.101 201.982 280.941 198.629 279.143 193.904C277.296 189.053 275.213 184.294 272.802 179.709C269.512 173.452 265.826 167.424 261.557 161.776C258.612 157.876 255.405 154.234 251.008 151.887C248.284 150.434 245.397 149.927 242.685 151.715C239.909 153.544 237.836 156.106 236.444 159.155C235.561 161.099 235.721 163.144 236.373 165.062C237.677 168.939 239.795 172.416 242.042 175.814C245.194 180.585 248.861 184.949 252.622 189.246C257.011 194.26 261.704 198.937 267.373 202.507C269.2 203.654 271.133 204.775 273.439 204.598L273.439 204.588Z" stroke="white" stroke-width="5.55336" mask="url(#path-3-outside-1_72_4729)"/>
<path d="M304.429 175.686L303.297 176.591C297.762 181.016 293.115 185.816 289.156 191.5L288.776 192.045L288.398 191.499C287.288 189.895 285.428 186.793 284.57 185.137C283.983 184.006 283.094 182.142 282.327 180.215C281.575 178.327 280.918 176.321 280.81 174.885C280.696 174.457 280.684 173.97 281.067 173.668C281.244 173.528 281.453 173.478 281.636 173.464C281.82 173.45 282.016 173.47 282.206 173.504C282.459 173.55 282.713 173.594 282.968 173.64C283.935 173.811 284.911 173.984 285.88 174.182L304.429 175.686ZM304.429 175.686L302.982 175.77M304.429 175.686L302.982 175.77M302.982 175.77C301.892 175.834 300.892 175.78 299.922 175.705C299.704 175.688 299.486 175.67 299.268 175.652C298.527 175.59 297.791 175.528 297.057 175.516L297.056 175.516M302.982 175.77L297.056 175.516M297.056 175.516C293.289 175.461 289.582 174.938 285.88 174.182L297.056 175.516Z" fill="white" stroke="white" stroke-width="0.922272"/>
</svg>
