<?xml version="1.0" encoding="UTF-8" standalone="no"?>
<svg
   xmlns:dc="http://purl.org/dc/elements/1.1/"
   xmlns:cc="http://creativecommons.org/ns#"
   xmlns:rdf="http://www.w3.org/1999/02/22-rdf-syntax-ns#"
   xmlns:svg="http://www.w3.org/2000/svg"
   xmlns="http://www.w3.org/2000/svg"
   xmlns:sodipodi="http://sodipodi.sourceforge.net/DTD/sodipodi-0.dtd"
   xmlns:inkscape="http://www.inkscape.org/namespaces/inkscape"
   width="30"
   height="30"
   viewBox="0 0 30 30"
   version="1.1"
   id="svg8"
   sodipodi:docname="done.svg"
   inkscape:version="0.92.3 (2405546, 2018-03-11)">
  <metadata
     id="metadata14">
    <rdf:RDF>
      <cc:Work
         rdf:about="">
        <dc:format>image/svg+xml</dc:format>
        <dc:type
           rdf:resource="http://purl.org/dc/dcmitype/StillImage" />
      </cc:Work>
    </rdf:RDF>
  </metadata>
  <defs
     id="defs12" />
  <sodipodi:namedview
     pagecolor="#ffffff"
     bordercolor="#666666"
     borderopacity="1"
     objecttolerance="10"
     gridtolerance="10"
     guidetolerance="10"
     inkscape:pageopacity="0"
     inkscape:pageshadow="2"
     inkscape:window-width="640"
     inkscape:window-height="480"
     id="namedview10"
     showgrid="false"
     inkscape:zoom="7.8666667"
     inkscape:cx="15"
     inkscape:cy="15"
     inkscape:window-x="0"
     inkscape:window-y="0"
     inkscape:window-maximized="0"
     inkscape:current-layer="svg8" />
  <path
     inkscape:connector-curvature="0"
     style="fill:#ffffff;stroke-width:2.13499641"
     d="M 25.631975,4.6224474 C 21.357712,0.34818467 14.929238,-0.92854315 9.3440874,1.3836579 3.758938,3.6958589 0.11876921,9.1465046 0.11876921,15.190679 c 0,6.044175 3.64016879,11.494819 9.22531819,13.80702 5.5851506,2.312201 12.0136246,1.035473 16.2878876,-3.23879 5.834945,-5.837078 5.834945,-15.299382 0,-21.1364616 z M 22.237331,11.018896 14.004784,20.624245 8.0908445,16.187723 C 7.7321651,15.920848 7.5442854,15.483174 7.5997953,15.04123 c 0.05124,-0.441945 0.3373295,-0.824109 0.7472488,-0.997044 0.4099193,-0.175069 0.8817535,-0.117425 1.2382978,0.14945 l 4.0479531,3.035965 6.712429,-7.8311668 c 0.288224,-0.3373294 0.736573,-0.4953191 1.174248,-0.4141893 0.437674,0.083265 0.798489,0.3907043 0.945804,0.8112986 0.149449,0.4205945 0.05978,0.8860235 -0.228445,1.2233525 z"
     id="path4" />
</svg>
