<?xml version="1.0" encoding="UTF-8" standalone="no"?>
<!-- Svg Vector Icons : http://www.onlinewebfonts.com/icon -->

<svg
   xmlns:dc="http://purl.org/dc/elements/1.1/"
   xmlns:cc="http://creativecommons.org/ns#"
   xmlns:rdf="http://www.w3.org/1999/02/22-rdf-syntax-ns#"
   xmlns:svg="http://www.w3.org/2000/svg"
   xmlns="http://www.w3.org/2000/svg"
   xmlns:sodipodi="http://sodipodi.sourceforge.net/DTD/sodipodi-0.dtd"
   xmlns:inkscape="http://www.inkscape.org/namespaces/inkscape"
   version="1.1"
   x="0px"
   y="0px"
   viewBox="0 0 32 32"
   enable-background="new 0 0 1000 1000"
   xml:space="preserve"
   id="svg12"
   sodipodi:docname="drop.svg"
   width="32"
   height="32"
   inkscape:version="0.92.3 (2405546, 2018-03-11)"><defs
   id="defs16" /><sodipodi:namedview
   pagecolor="#ffffff"
   bordercolor="#7A869A"
   borderopacity="1"
   objecttolerance="10"
   gridtolerance="10"
   guidetolerance="10"
   inkscape:pageopacity="0"
   inkscape:pageshadow="2"
   inkscape:window-width="870"
   inkscape:window-height="480"
   id="namedview14"
   showgrid="false"
   inkscape:zoom="7.552"
   inkscape:cx="13.646116"
   inkscape:cy="12.883574"
   inkscape:window-x="0"
   inkscape:window-y="0"
   inkscape:window-maximized="0"
   inkscape:current-layer="svg12" />
<metadata
   id="metadata2"> Svg Vector Icons : http://www.onlinewebfonts.com/icon <rdf:RDF><cc:Work
     rdf:about=""><dc:format>image/svg+xml</dc:format><dc:type
       rdf:resource="http://purl.org/dc/dcmitype/StillImage" /><dc:title /></cc:Work></rdf:RDF></metadata>
<path
   d="m 18.064237,3.4040589 c -1.159831,0.1400801 -2.066275,0.7333797 -2.532885,1.6665938 -0.339917,0.6732987 -0.333387,0.5266881 -0.333387,7.3524083 0,5.139209 -0.01339,6.379032 -0.08,6.339195 -0.04669,-0.02678 -1.406361,-1.133048 -3.01974,-2.45287 -1.61338,-1.319823 -3.0328017,-2.466259 -3.1594949,-2.553115 -0.3732227,-0.253385 -0.9198322,-0.166529 -1.1663616,0.193304 -0.140081,0.193304 -0.140081,0.713135 0,0.906439 0.099918,0.14661 7.2456785,6.025729 7.6855135,6.325807 0.146611,0.09992 0.319998,0.153468 0.513303,0.153468 0.266448,0 0.353305,-0.04669 1.006689,-0.579912 4.312469,-3.493186 6.892048,-5.606468 7.072292,-5.792915 0.166529,-0.179917 0.213223,-0.279834 0.213223,-0.493383 0,-0.540075 -0.326529,-0.866602 -0.859751,-0.866602 -0.233141,0 -0.339916,0.06008 -0.786608,0.419913 -0.286693,0.233467 -1.686522,1.373046 -3.112801,2.53287 -1.426605,1.160151 -2.619742,2.113283 -2.653375,2.113283 -0.03331,0 -0.04669,-2.81303 -0.03984,-6.252339 0.01992,-6.8322508 0,-6.4524999 0.406528,-6.8923318 0.439835,-0.4731376 0.799996,-0.519831 3.959491,-0.519831 2.879659,0 2.912965,-0.00686 3.119658,-0.3999955 0.226611,-0.4398319 0.01339,-1.0266009 -0.433304,-1.1797421 -0.266774,-0.093713 -5.05924,-0.1067743 -5.799155,-0.020245 z"
   id="path4"
   inkscape:connector-curvature="0"
   style="stroke-width:0.00326528;fill:#7a869a;fill-opacity:1" /><path
   d="M 0.73991441,20.288117 C 0.61322116,20.327953 0.39999773,20.468033 0.2533862,20.601256 L -3e-7,20.848111 v 5.57251 5.579366 H 15.724657 c 11.011864,0 15.777881,-0.01992 15.924493,-0.07347 0.133223,-0.04669 0.226611,-0.14008 0.273304,-0.273303 0.106775,-0.293221 0.09992,-10.818493 0,-11.111714 -0.04016,-0.113305 -0.126693,-0.239997 -0.193305,-0.273303 -0.07314,-0.04016 -1.186606,-0.06661 -2.813047,-0.06661 -2.546273,0 -2.699742,0.0065 -2.899578,0.133223 -0.279835,0.166529 -0.393141,0.406527 -0.439834,0.913296 -0.09339,1.139906 -0.999832,2.099569 -2.153132,2.286342 -0.566528,0.09339 -13.7514428,0.08653 -14.2647464,-0.0069 C 8.0188989,23.3209 7.2058417,22.427848 7.0722913,21.248106 7.0056794,20.668194 6.9322104,20.508196 6.6458444,20.33481 6.4460087,20.208118 6.2925401,20.201587 3.6995733,20.208118 c -1.7665219,0.0069 -2.81304737,0.03363 -2.95965889,0.08 z M 24.330002,27.040695 c 0.373223,0.22661 0.513304,0.746441 0.30008,1.159824 -0.22008,0.426771 0.273305,0.399996 -8.312122,0.399996 -7.7256762,0 -7.8190635,0 -8.0388175,-0.133223 C 7.8791445,28.220764 7.7792266,27.694076 8.0525314,27.280693 8.2859996,26.92086 7.8791445,26.940778 16.31796,26.933921 c 7.125516,0 7.838655,0.0069 8.012042,0.106774 z"
   id="path6"
   inkscape:connector-curvature="0"
   style="stroke-width:0.00326528;fill:#7a869a;fill-opacity:1" />
</svg>
