<svg xmlns="http://www.w3.org/2000/svg" width="31" height="23" viewBox="0 0 31 23">
    <path fill="#7A869A" d="M21.958 12.778c1.427 0 2.584-1.144 2.584-2.556 0-1.411-1.157-2.555-2.584-2.555-1.426 0-2.583 1.144-2.583 2.555 0 1.412 1.157 2.556 2.583 2.556zM29.715 0c-.078 0-.155.007-.231.02-9.252 1.611-18.716 1.611-27.968 0C1.44.007 1.363 0 1.286 0 .944-.001.617.131.375.37.137.606 0 .93 0 1.265v20.468c0 .336.136.66.377.897s.568.37.908.369c.078 0 .155-.007.231-.02 9.252-1.611 18.716-1.611 27.968 0 .076.013.153.02.23.02.341.001.668-.131.91-.37.24-.237.376-.56.376-.896V1.266c0-.336-.136-.66-.377-.897S30.055 0 29.715 0zm-2.59 18.733c-2.468-.338-4.955-.557-7.443-.68l-8.057-9.109-7.75 8.762V4.266c7.713 1.06 15.537 1.06 23.25 0v14.467z"/>
</svg>
