<svg xmlns="http://www.w3.org/2000/svg" width="14" height="16" viewBox="0 0 14 16">
    <path fill="#FFF" d="M7.672 2.328C11.225 2.674 14 5.608 14 9.178c0 3.49-2.654 6.373-6.094 6.822v-2.326c2.14-.425 3.75-2.276 3.75-4.496 0-2.3-1.729-4.206-3.984-4.538v2.243L2.985 3.442 7.672 0v2.328zM2.704 14.65c.949.71 2.087 1.188 3.328 1.35v-2.326c-.599-.118-1.156-.35-1.648-.668l-1.68 1.644zm-1.326-1.298C.654 12.424.165 11.31 0 10.095h2.375c.122.586.357 1.131.683 1.613l-1.68 1.644zm-.05-8.285C.632 5.983.162 7.074 0 8.26h2.375c.139-.668.426-1.283.825-1.812L1.33 5.068z"/>
</svg>
