<svg xmlns="http://www.w3.org/2000/svg" width="14" height="16" viewBox="0 0 14 16">
    <path fill="#FFF" d="M6.328 2.328C2.775 2.674 0 5.608 0 9.178 0 12.668 2.654 15.55 6.094 16v-2.326c-2.14-.425-3.75-2.276-3.75-4.496 0-2.3 1.729-4.206 3.984-4.538v2.243l4.687-3.441L6.328 0v2.328zm4.968 12.322c-.949.71-2.087 1.188-3.328 1.35v-2.326c.599-.118 1.156-.35 1.648-.668l1.68 1.644zm1.326-1.298c.724-.928 1.213-2.042 1.378-3.257h-2.375c-.122.586-.357 1.131-.683 1.613l1.68 1.644zm.05-8.285c.697.916 1.167 2.007 1.328 3.193h-2.375c-.139-.668-.426-1.283-.825-1.812l1.871-1.38z"/>
</svg>
