<svg xmlns="http://www.w3.org/2000/svg" width="15" height="15" viewBox="0 0 15 15">
    <path fill="#FFF" d="M12.804 2.201C10.458-.149 6.844-.677 3.924.906 1.005 2.49-.525 5.804.165 9.054c.69 3.249 3.434 5.657 6.745 5.918l-.03.028H15V7.503c.003-1.99-.788-3.897-2.196-5.302zM11.48 11.48c-2.196 2.196-5.756 2.196-7.952 0-2.196-2.196-2.196-5.756 0-7.952 2.196-2.196 5.756-2.196 7.952 0 1.063 1.05 1.662 2.481 1.662 3.976 0 1.494-.599 2.926-1.662 3.976zm-.852-4.601h-2.5v-2.5c0-.344-.28-.624-.624-.624-.345 0-.625.28-.625.625v2.499H4.38c-.345 0-.625.28-.625.625s.28.625.625.625h2.5v2.499c0 .345.279.624.624.624s.625-.28.625-.624v-2.5h2.499c.345 0 .624-.28.624-.624 0-.345-.28-.625-.624-.625z"/>
</svg>
