<svg xmlns="http://www.w3.org/2000/svg" width="48" height="48" viewBox="0 0 48 48">
    <g fill="none" fill-rule="evenodd" transform="translate(0 .6)">
        <circle cx="23.654" cy="23.654" r="23.654" fill="#FFF"/>
        <path fill="#4C68EF" d="M23.654 47.31c-12.902 0-19.824-9.275-21.907-14.718-.987-2.58-4.646-16.045 7.325-24.797C18.816.672 28.808 3.794 32.323 6.317c8.333 5.98 8.318 12.743 8.318 15.65 0 6.183-6.182 13.104-12.298 13.507-6.115.404-8.736-1.948-10.177-4.723-1.218-2.345-.306-8.112 5.406-7.373 5.712.74 6.323-3.73 5.682-5.866-1.21-4.032-6.45-6.518-11.088-5.241-4.636 1.277-9.102 4.886-10.281 10.483-1.18 5.597-.5 9.859 3.494 14.38 3.995 4.523 11.148 7.432 19.585 5.665 3.184-.666 8.78-3.587 11.775-8.325 3.002-4.75 4.493-9.072 4.474-12.97.534 6.182-1.058 11.693-4.776 16.531-4.28 5.57-10.987 9.274-18.783 9.274z"/>
    </g>
</svg>
