<svg xmlns="http://www.w3.org/2000/svg" width="20" height="20" viewBox="0 0 20 20">
    <g fill="none" fill-rule="evenodd">
        <circle cx="10" cy="10" r="10" fill="#FFF"/>
        <path fill="#4C68EF" fill-rule="nonzero" d="M11.667 6v2h2l-2-2zM11 6H7.667C7.298 6 7 6.298 7 6.667v6.666c0 .369.298.667.667.667H13c.368 0 .667-.298.667-.667V8.667H11V6zm1 6.667H8.667c-.184 0-.334-.15-.334-.334 0-.184.15-.333.334-.333H12c.184 0 .333.15.333.333 0 .184-.149.334-.333.334zm0-2.334c.184 0 .333.15.333.334 0 .184-.149.333-.333.333H8.667c-.184 0-.334-.15-.334-.333 0-.184.15-.334.334-.334H12z"/>
    </g>
</svg>
