<svg xmlns="http://www.w3.org/2000/svg" width="18" height="18" viewBox="0 0 18 18">
    <g fill="none" fill-rule="evenodd">
        <circle cx="9" cy="9" r="9" fill="#FFF"/>
        <path fill="#4b68ef" fill-rule="nonzero" d="M11.545 5h-5.09c-.386 0-.756.153-1.029.426C5.153 5.699 5 6.069 5 6.455v5.09c0 .386.153.756.426 1.029.273.273.643.426 1.029.426h5.09c.386 0 .756-.153 1.029-.426.273-.273.426-.643.426-1.029v-5.09c0-.386-.153-.756-.426-1.029-.273-.273-.643-.426-1.029-.426zm-4 6.422c0 .268-.217.486-.485.486h-.483c-.269 0-.486-.218-.486-.486V9.486c0-.269.217-.486.486-.486h.483c.268 0 .485.217.485.486v1.936zm2.182 0c0 .268-.217.486-.485.486h-.484c-.268 0-.485-.218-.485-.486V6.575c0-.129.05-.252.142-.343.091-.091.215-.142.343-.142h.484c.128 0 .252.05.343.142.091.09.142.214.142.343v4.847zm2.182 0c0 .268-.217.486-.486.486h-.483c-.268 0-.485-.218-.485-.486V8.03c0-.129.05-.253.142-.344.09-.09.214-.142.343-.142h.483c.13 0 .253.051.344.142.09.091.142.215.142.344v3.392z"/>
    </g>
</svg>
