<svg xmlns="http://www.w3.org/2000/svg" width="20" height="20" viewBox="0 0 20 20">
    <g fill="none" fill-rule="evenodd">
        <circle cx="10" cy="10" r="10" fill="#29292A"/>
        <path fill="#FFF" fill-rule="nonzero" d="M13.769 11.95l-.962-.412-2.583.923-.224.08-.224-.08-2.583-.923-.962.412c-.144.062-.236.206-.23.363.004.157.104.295.252.347L10 14l3.747-1.34c.148-.052.248-.19.253-.347.005-.157-.087-.3-.231-.363zM6.253 8.327L10 9.667l3.747-1.34c.148-.053.248-.19.253-.347.005-.157-.087-.301-.231-.363L10 6 6.231 7.617c-.144.062-.236.206-.23.363.004.156.104.294.252.347zm7.516 1.457l-.962-.413-2.583.923-.224.08-.224-.08-2.583-.923-.962.413c-.144.062-.236.205-.23.362.004.157.104.295.252.348L10 11.834l3.747-1.34c.148-.053.248-.191.253-.348.005-.157-.087-.3-.231-.362z" opacity=".5"/>
    </g>
</svg>
