<svg xmlns="http://www.w3.org/2000/svg" width="22" height="23" viewBox="0 0 22 23">
    <g fill="none" fill-rule="evenodd" transform="translate(0 .5)">
        <circle cx="11" cy="11" r="11" fill="#29292A"/>
        <path fill="#FFF" fill-rule="nonzero" d="M11 6.5c-2.761 0-5 2.239-5 5s2.239 5 5 5 5-2.239 5-5-2.239-5-5-5zm0 2.083c1.036 0 1.875.84 1.875 1.875 0 1.036-.84 1.875-1.875 1.875-1.036 0-1.875-.84-1.875-1.875.001-1.035.84-1.873 1.875-1.875zm0 7.084c-1.033 0-2.03-.387-2.793-1.084.353-.816 1.467-1.416 2.793-1.416 1.327 0 2.44.6 2.793 1.416-.763.697-1.76 1.083-2.793 1.084z" opacity=".5"/>
    </g>
</svg>
