<svg width="567" height="254" viewBox="0 0 567 254" fill="none" xmlns="http://www.w3.org/2000/svg">
<path fill-rule="evenodd" clip-rule="evenodd" d="M50.6755 104.124L85.41 73.419L85.4203 73.4096C86.3258 72.5828 87.0583 71.7356 87.5163 70.8793C87.9695 70.0318 88.2624 68.9555 87.8629 67.8681C87.4593 66.7693 86.5288 66.1454 85.6188 65.8113C84.7072 65.4766 83.5968 65.342 82.3742 65.342H56.4086C55.8334 65.342 55.243 65.4537 54.717 65.6378C54.2212 65.8114 53.6529 66.0948 53.1961 66.5375L20.7832 96.0398V49.768C20.7832 48.5078 20.3556 47.3228 19.4813 46.4485C18.6069 45.5741 17.4219 45.1465 16.1618 45.1465H4.62146C3.36135 45.1465 2.17633 45.5741 1.30197 46.4485C0.427615 47.3228 0 48.5078 0 49.768V144.975C0 146.236 0.427619 147.421 1.30197 148.295C2.17633 149.169 3.36135 149.597 4.62146 149.597H16.1618C17.4219 149.597 18.6069 149.169 19.4813 148.295C20.3556 147.421 20.7832 146.236 20.7832 144.975V130.315L34.542 117.957L63.7563 148.141C64.25 148.742 64.9171 149.084 65.4441 149.276C66.0275 149.488 66.6609 149.597 67.2276 149.597H82.6627C83.7554 149.597 84.7711 149.468 85.6297 149.152C86.4888 148.835 87.3414 148.269 87.7995 147.311C88.2666 146.335 88.1557 145.304 87.8072 144.423C87.4662 143.56 86.8578 142.718 86.0898 141.909L86.0854 141.904L50.6755 104.124ZM54.389 67.7997V67.7997C54.8218 67.3669 55.6873 67.0784 56.4086 67.0784H82.3742C82.7935 67.0784 83.1797 67.0961 83.5328 67.1308C83.1797 67.0961 82.7935 67.0785 82.3742 67.0785H56.4086C55.6873 67.0785 54.8218 67.367 54.389 67.7997ZM18.9939 49.147C18.7493 47.7664 17.6764 46.8829 16.1618 46.8829H4.62146C2.89042 46.8829 1.73639 48.0369 1.73639 49.768V49.768C1.73639 48.037 2.89042 46.8829 4.62146 46.8829H16.1618C17.6764 46.8829 18.7493 47.7665 18.9939 49.147ZM100.469 69.6476L100.447 69.6564L100.425 69.6658C98.9918 70.2801 97.6661 71.6445 97.6421 73.518L96.6358 92.7843L96.6349 92.7975C96.554 94.0343 96.6915 95.2804 97.3026 96.2775C97.9929 97.4038 99.1264 97.954 100.388 97.954C101.265 97.954 102.25 97.7328 103.328 97.1938L103.349 97.1833C111.763 92.8357 121.589 89.5873 137.605 89.5873C146.123 89.5873 152.355 90.4547 156.687 92.3613C159.892 93.772 162.062 95.7495 163.364 98.4687C157.692 97.3618 150.34 96.6451 142.51 96.6451C131.294 96.6451 118.979 98.1319 109.4 102.269C99.7838 106.423 92.5929 113.434 92.5929 124.491C92.5929 132.792 95.475 139.736 101.849 144.541C108.137 149.281 117.591 151.761 130.393 151.761C147.983 151.761 160.03 143.008 165.552 133.936L166.892 145.581L166.894 145.596C167.141 148 169.116 149.597 171.505 149.597H181.17C182.43 149.597 183.615 149.169 184.489 148.295C185.364 147.421 185.791 146.236 185.791 144.975L185.791 102.421L185.791 102.41C185.717 90.4928 181.903 80.5911 173.94 73.6993C166.013 66.84 154.223 63.1782 138.615 63.1782C123.125 63.1782 109.057 66.2421 100.469 69.6476ZM166.023 100.834C165.414 100.681 164.773 100.534 164.105 100.392C164.773 100.534 165.414 100.681 166.023 100.834ZM160.674 111.367C162.491 111.474 163.972 111.581 164.997 111.662L165.008 111.663V113.095C165.008 114.075 164.54 115.27 163.325 116.586C162.114 117.897 160.25 119.226 157.728 120.414C152.69 122.788 145.273 124.486 136.019 124.486C128.262 124.486 122.795 123.905 119.32 122.769C117.591 122.204 116.493 121.544 115.842 120.874C115.237 120.251 114.963 119.566 114.963 118.721C114.963 117.582 115.591 116.485 117.265 115.407C118.963 114.315 121.491 113.423 124.649 112.737C130.937 111.37 139.154 110.937 146.693 110.937C152.059 110.937 157.036 111.152 160.674 111.367ZM288.675 69.6476L288.653 69.6564L288.631 69.6658C287.198 70.2801 285.872 71.6448 285.848 73.5187L284.842 92.7843L284.841 92.7975C284.76 94.0343 284.898 95.2804 285.509 96.2775C286.199 97.4038 287.332 97.954 288.594 97.954C289.471 97.954 290.456 97.7326 291.534 97.1938L291.555 97.1833C299.97 92.8357 309.795 89.5873 325.811 89.5873C334.329 89.5873 340.561 90.4547 344.893 92.3613C348.098 93.772 350.268 95.7495 351.57 98.4687C345.898 97.3618 338.546 96.6451 330.716 96.6451C319.5 96.6451 307.185 98.1319 297.607 102.269C287.99 106.423 280.799 113.434 280.799 124.491C280.799 132.792 283.681 139.736 290.055 144.541C296.343 149.281 305.797 151.761 318.599 151.761C336.189 151.761 348.236 143.008 353.758 133.936L355.098 145.581L355.1 145.596C355.347 148 357.322 149.597 359.711 149.597H369.376C370.636 149.597 371.821 149.169 372.695 148.295C373.57 147.421 373.997 146.236 373.997 144.975L373.998 102.421L373.997 102.41C373.923 90.4928 370.109 80.5911 362.146 73.6993C354.219 66.84 342.429 63.1782 326.821 63.1782C311.331 63.1782 297.263 66.2421 288.675 69.6476ZM352.311 100.392C352.979 100.534 353.62 100.681 354.229 100.834C353.62 100.681 352.979 100.534 352.311 100.392ZM324.225 124.486C316.468 124.486 311.002 123.905 307.526 122.769C305.797 122.204 304.699 121.544 304.048 120.874C303.443 120.251 303.169 119.566 303.169 118.721C303.169 117.582 303.797 116.485 305.471 115.407C307.169 114.315 309.697 113.423 312.855 112.737C319.143 111.37 327.361 110.937 334.899 110.937C340.265 110.937 345.242 111.152 348.88 111.367C350.697 111.474 352.178 111.581 353.203 111.662L353.214 111.663V113.095C353.214 114.075 352.746 115.27 351.531 116.586C350.32 117.897 348.456 119.226 345.934 120.414C340.896 122.788 333.479 124.486 324.225 124.486ZM466.876 70.2428L466.856 70.2344L466.837 70.2266C458.726 66.9824 445.669 63.3225 428.541 63.3225C413.107 63.3225 401.099 68.0564 392.942 76.0242C384.787 83.99 380.644 95.0297 380.644 107.325C380.644 119.501 383.745 130.693 391.901 138.83C400.057 146.966 412.979 151.761 432.004 151.761C442.274 151.761 456.067 149.715 466.852 145.283L466.864 145.278L466.876 145.273C468.487 144.582 469.659 142.968 469.659 141.081V121.751C469.659 120.155 469.168 118.552 467.795 117.649C466.428 116.75 464.779 116.935 463.352 117.555C454.64 121.124 445.655 124.486 431.282 124.486C425.732 124.486 417.73 123.875 411.18 121.306C407.916 120.026 405.115 118.3 403.14 116.018C401.195 113.77 399.985 110.91 399.985 107.181C399.985 101.131 404.112 97.1202 410.23 94.5353C416.341 91.9532 423.985 91.0299 429.84 91.0299C441.41 91.0299 454.306 94.146 462.914 97.815L462.932 97.8226L462.95 97.8298C463.837 98.1846 464.778 98.3868 465.615 98.3868C466.801 98.3868 467.976 97.9888 468.796 96.954C469.557 95.9947 469.803 94.7449 469.803 93.4768L469.659 74.4353V74.4285C469.656 72.5438 468.485 70.9326 466.876 70.2428ZM481.019 45.1465C479.759 45.1465 478.574 45.5741 477.7 46.4485C476.826 47.3228 476.398 48.5078 476.398 49.768V144.975C476.398 146.236 476.826 147.421 477.7 148.295C478.574 149.169 479.759 149.597 481.019 149.597H492.56C493.82 149.597 495.005 149.169 495.879 148.295C496.754 147.421 497.181 146.236 497.181 144.975V117.019C497.391 110.535 499.607 104.845 503.48 100.789C507.343 96.7451 512.969 94.2034 520.256 94.2034C528.841 94.2034 535.248 95.4049 539.522 98.7717C543.693 102.058 546.217 107.737 546.217 117.711V144.975C546.217 146.236 546.644 147.421 547.519 148.295C548.393 149.169 549.578 149.597 550.838 149.597H562.379C563.639 149.597 564.824 149.169 565.698 148.295C566.572 147.421 567 146.236 567 144.975V103.863C567 92.042 563.933 81.8244 557.177 74.5518C550.4 67.2565 540.148 63.1782 526.315 63.1782C515.071 63.1782 503.214 66.8924 497.181 76.5579V49.768C497.181 48.5078 496.754 47.3228 495.879 46.4485C495.005 45.5741 493.82 45.1465 492.56 45.1465H481.019ZM479.703 47.1465C480.087 46.9751 480.53 46.8829 481.019 46.8829H492.56C493.209 46.8829 493.777 47.0452 494.233 47.3393C493.777 47.0452 493.209 46.8829 492.56 46.8829H481.019C480.53 46.8829 480.087 46.9751 479.703 47.1465ZM113.226 118.721C113.226 118.721 113.226 118.721 113.226 118.721C113.226 119.37 113.339 119.974 113.567 120.535C113.339 119.974 113.226 119.37 113.226 118.721Z" fill="black"/>
<path d="M170.11 171.073L169.708 164.474C169.93 164.272 169.88 164.008 169.873 163.753C169.787 161.37 170.186 159.019 170.894 156.783C173.237 149.382 178.792 145.476 185.926 143.421C186.78 143.177 186.899 142.731 186.562 142.071C185.348 139.689 184.301 137.251 183.477 134.691C182.349 131.197 182.805 127.987 184.535 124.837C186.197 121.816 188.439 119.269 191.054 117.093C194.553 114.182 198.519 113.071 203.049 114.411C204.865 114.948 206.576 115.742 208.372 116.359C208.516 115.908 208.149 115.717 208.036 115.436C206.886 112.599 205.719 109.772 204.557 106.94C203.453 104.238 202.344 101.536 201.248 98.8297C200.132 96.0827 199.021 93.3353 197.914 90.5836C197.117 88.6065 196.307 86.6343 195.551 84.6422C194.566 82.0459 193.618 79.439 192.674 76.8277C191.85 74.5474 190.96 72.2877 190.255 69.9667C189.355 66.9893 188.431 64.0176 187.777 60.9626C187.077 57.7015 186.948 54.4851 187.689 51.2156C188.916 45.7948 192.002 42.0859 197.466 40.6588C199.324 40.1738 201.289 39.9288 203.179 40.5864C204.69 41.1125 205.96 42.0792 207.124 43.1611C211.84 47.5599 215.065 53.0436 218.212 58.5696C220.317 62.263 222.211 66.0736 224.04 69.9091C225.779 73.5579 227.553 77.1879 229.089 80.9284C230.349 84.0008 231.691 87.039 232.968 90.1061C234.103 92.8353 235.165 95.5982 236.333 98.3128C236.806 99.4159 237.096 100.626 237.961 101.73C238.453 100.201 238.939 98.8516 239.323 97.475C240.458 93.413 241.448 89.3097 242.694 85.2827C243.971 81.1453 245.247 77.0079 246.634 72.9013C248.867 66.2999 251.336 59.7969 254.414 53.545C256.228 49.8635 258.265 46.2812 261.096 43.2519C263.562 40.6082 266.367 38.8043 270.287 39.3173C274.471 39.8601 277.678 41.7655 279.893 45.3436C282.302 49.244 282.584 53.537 282.227 57.9609C281.96 61.2558 281.33 64.4893 280.764 67.7314C280.32 70.2561 279.649 72.7403 279.079 75.2434C278.453 77.9921 277.882 80.7542 277.188 83.4862C276.329 86.8715 275.322 90.2198 274.467 93.6048C273.613 97.0023 272.653 100.364 271.671 103.724C270.942 106.216 270.272 108.725 269.569 111.236C271.732 111.576 273.809 112.018 275.848 112.708C279.984 114.106 283.375 116.43 285.792 120.113C288.725 124.587 289.954 129.674 290.545 134.838C291.135 139.998 291.515 145.212 291.369 150.429C291.29 153.241 291.106 156.05 290.702 158.819C290.24 161.996 289.606 165.155 288.743 168.269C287.477 172.853 285.773 177.246 283.539 181.437C280.192 187.714 275.946 193.298 270.791 198.214C266.623 202.19 261.984 205.513 256.863 208.097C251.178 210.966 245.151 212.891 238.847 213.956C237.718 214.146 236.524 214.018 235.454 214.547L225.995 215.123C225.726 214.818 225.38 214.964 225.063 214.975C222.616 215.049 220.178 214.792 217.783 214.42C214.473 213.908 211.216 213.096 207.997 212.089C202.305 210.306 197.004 207.759 192.236 204.216C184.286 198.301 177.517 191.325 173.398 182.129C172.379 179.852 171.542 177.51 170.972 175.064C170.661 173.734 170.569 172.357 170.11 171.061L170.11 171.073ZM227.854 173.164C225.766 175.154 223.53 175.132 221.263 174.811C220.025 174.635 219.912 174.776 220.241 176.055C220.92 178.707 221.132 181.363 219.83 183.919C216.757 189.966 210.298 191.851 204.034 190.023C200.794 189.076 197.911 187.477 195.267 185.416C190.558 181.747 186.388 177.67 185.032 171.526C184.639 169.741 184.704 167.996 185.547 166.34C185.786 165.875 185.971 165.692 186.477 166.246C188.405 168.351 190.258 170.514 192.107 172.686C194.923 175.998 197.974 179.057 202.053 180.805C204.879 182.015 207.681 182.212 210.272 180.116C211.908 178.793 212.295 177.529 211.727 175.609C211.233 173.947 210.286 172.531 209.385 171.103C206.723 166.901 203.419 163.197 200.053 159.559C197.518 156.819 194.923 154.129 191.769 152.057C189.615 150.643 187.484 150.351 185.151 151.68C181.191 153.93 179.123 157.552 178.214 161.763C177.211 166.41 178.21 170.96 179.987 175.304C181.704 179.501 184.088 183.324 186.882 186.891C190.143 191.057 193.782 194.845 198.159 197.853C203.956 201.835 210.289 204.523 217.243 205.825C220.623 206.458 224.023 206.802 227.423 206.821C233.615 206.857 239.719 205.917 245.596 203.943C249.431 202.657 253.064 200.865 256.475 198.652C262.06 195.029 266.735 190.455 270.709 185.143C274.247 180.416 277.075 175.291 279.034 169.729C280.643 165.154 281.705 160.449 282.279 155.602C282.676 152.262 282.903 148.911 282.846 145.578C282.743 139.924 282.341 134.277 280.592 128.816C279.612 125.748 278.033 123.204 275.164 121.571C272.996 120.333 270.68 119.467 268.308 118.726C265.162 117.74 261.943 117.072 258.715 116.462C256.158 115.983 253.566 115.657 250.983 115.35C248.492 115.055 245.992 114.869 243.494 114.666C240.909 114.456 238.307 114.327 235.746 114.387C231.655 114.481 227.519 114.261 223.476 115.08C221.57 115.468 219.836 116.35 219.254 118.445C218.123 122.51 219.868 127.224 223.086 129.801C226.577 132.596 230.793 133.521 235.057 134.197C237.166 134.532 239.308 134.668 241.451 134.809C244.299 134.999 247.148 135.085 249.985 135.033C254.315 134.953 258.635 134.564 262.963 134.309C265.485 134.155 267.172 135.306 267.811 137.718C268.006 138.45 268.459 139.228 267.48 139.952C265.497 141.418 263.364 142.604 261.152 143.646C258.09 145.089 254.983 146.456 252.217 148.433C245.905 152.94 241.346 158.865 238.248 165.945C237.064 168.652 236.28 171.486 236.113 174.424C235.824 179.487 237.49 184.138 239.394 188.725C240.172 190.599 240.914 192.492 240.862 194.596C240.845 195.336 240.677 195.534 239.902 195.427C236.646 194.978 234.267 193.218 232.425 190.603C229.896 187.015 228.856 182.889 228.201 178.652C227.939 176.96 227.967 175.225 227.841 173.165L227.854 173.164ZM194.898 56.4399C195.062 57.3404 195.257 58.8279 195.604 60.2728C196.524 64.0758 197.757 67.7806 199.071 71.4636C200.114 74.3947 201.227 77.2965 202.343 80.198C203.559 83.365 204.865 86.4972 206.175 89.6292C207.623 93.0912 209.098 96.543 210.603 99.9806C211.932 103.02 213.319 106.038 214.673 109.067C214.891 109.559 215.13 109.716 215.526 109.224C216.505 108.016 217.919 107.579 219.341 107.4C222.583 106.998 225.845 107.351 229.097 107.395C230.155 107.41 230.531 107.065 230.131 106.062C229.573 104.651 228.934 103.274 228.335 101.878C227.312 99.4889 226.286 97.0998 225.287 94.7005C223.982 91.5725 222.709 88.434 221.407 85.3057C220.297 82.6419 219.158 79.9923 218.052 77.3282C216.769 74.2321 215.547 71.1114 214.224 68.0345C212.686 64.4612 211.1 60.9116 209.319 57.4492C208.016 54.914 206.697 52.3923 204.675 50.3228C201.819 47.3977 197.825 47.5784 195.833 50.7988C194.886 52.3308 194.742 54.0812 194.889 56.432L194.898 56.4399ZM268.368 47.8542C267.765 48.0371 267.043 48.1145 266.398 48.5046C264.509 49.643 263.303 51.3829 262.26 53.2382C259.237 58.6097 257.579 64.5037 255.826 70.3491C254.719 74.046 253.812 77.8018 252.777 81.5193C251.762 85.1646 250.676 88.7935 249.667 92.4427C248.403 96.997 247.203 101.568 245.935 106.123C245.397 108.06 245.427 108.146 247.396 108.306C251.556 108.65 255.696 109.149 259.831 109.695C260.378 109.766 260.756 109.731 260.823 109.046C260.856 108.697 261.082 108.37 261.187 108.021C262.222 104.458 263.254 100.891 264.286 97.3283C265.08 94.5902 265.899 91.8631 266.659 89.1187C267.594 85.7497 268.487 82.3707 269.383 78.9915C270.049 76.4784 270.727 73.9687 271.329 71.4387C272.114 68.1414 272.869 64.8377 273.569 61.5248C274.185 58.6137 274.875 55.669 274.154 52.689C273.36 49.3878 271.623 47.8814 268.372 47.8581L268.368 47.8542ZM222.212 166.383C222.802 166.272 223.386 166.387 223.933 166.048C226.815 164.265 228.311 161.538 226.849 157.697C225.347 153.754 223.654 149.885 221.694 146.158C219.02 141.071 216.023 136.171 212.553 131.579C210.158 128.409 207.551 125.447 203.977 123.539C201.762 122.359 199.415 121.946 197.211 123.4C194.954 124.887 193.268 126.969 192.137 129.448C191.419 131.029 191.549 132.691 192.079 134.25C193.14 137.402 194.861 140.229 196.688 142.991C199.25 146.87 202.231 150.418 205.288 153.911C208.857 157.987 212.672 161.789 217.281 164.691C218.766 165.624 220.337 166.535 222.212 166.391L222.212 166.383ZM234.681 155.524C237.923 150.87 241.727 146.946 246.251 143.33C244.428 143.436 242.92 143.148 241.406 143.124C238.313 143.078 235.275 142.649 232.251 142.032C231.262 141.829 230.266 141.66 229.273 141.482C228.72 141.382 228.385 141.507 228.576 142.172C228.666 142.484 228.759 142.771 228.919 143.074C230.415 145.827 231.838 148.61 233.01 151.529C233.531 152.821 233.789 154.238 234.682 155.528L234.681 155.524Z" fill="black"/>
<mask id="path-3-outside-1_72_4769" maskUnits="userSpaceOnUse" x="168.704" y="41.4073" width="119.769" height="170.385" fill="black">
<rect fill="white" x="168.704" y="41.4073" width="119.769" height="170.385"/>
<path d="M227.955 173.476C227.947 173.33 227.77 173.26 227.659 173.356C225.65 175.093 223.511 175.059 221.344 174.752C220.105 174.576 219.992 174.717 220.321 175.996C221 178.648 221.212 181.304 219.91 183.86C216.837 189.907 210.378 191.792 204.115 189.964C200.874 189.017 197.991 187.418 195.347 185.357C190.638 181.688 186.468 177.611 185.112 171.467C184.719 169.682 184.784 167.936 185.627 166.281C185.866 165.816 186.051 165.633 186.557 166.187C188.485 168.292 190.338 170.455 192.187 172.627C195.003 175.939 198.055 178.998 202.133 180.746C204.959 181.956 207.761 182.153 210.352 180.057C211.988 178.734 212.375 177.47 211.807 175.55C211.313 173.888 210.366 172.472 209.465 171.044C206.803 166.841 203.499 163.138 200.133 159.5C197.598 156.76 195.003 154.07 191.849 151.998C189.695 150.584 187.564 150.292 185.231 151.62C181.271 153.871 179.203 157.493 178.294 161.704C177.291 166.351 178.29 170.901 180.067 175.245C181.785 179.442 184.168 183.264 186.963 186.832C190.224 190.998 193.862 194.786 198.239 197.794C204.037 201.776 210.369 204.464 217.323 205.765C220.703 206.399 224.103 206.743 227.504 206.762C233.696 206.798 239.799 205.858 245.676 203.884C249.511 202.597 253.144 200.806 256.555 198.593C262.14 194.97 266.815 190.396 270.789 185.083C274.327 180.357 277.155 175.231 279.114 169.67C280.723 165.095 281.785 160.39 282.359 155.543C282.757 152.203 282.983 148.852 282.926 145.518C282.824 139.865 282.23 135.325 280.482 129.864C279.501 126.795 277.922 124.252 275.053 122.618C272.885 121.38 270.569 120.515 268.197 119.774C257.97 116.569 246.351 115.183 235.635 115.434C231.544 115.529 227.599 114.202 223.556 115.021C221.65 115.408 219.916 116.291 219.334 118.385C218.203 122.451 219.948 127.165 223.167 129.742C226.657 132.537 230.873 133.462 235.137 134.137C237.246 134.473 239.388 134.609 241.531 134.75C244.379 134.94 247.228 135.026 250.065 134.974C254.396 134.894 258.716 134.505 263.044 134.25C265.565 134.096 267.252 135.247 267.892 137.659C268.086 138.391 268.539 139.169 267.56 139.893C265.578 141.359 263.445 142.545 261.232 143.586C258.171 145.03 255.063 146.397 252.297 148.374C245.985 152.881 241.426 158.806 238.328 165.886C237.144 168.593 236.361 171.427 236.193 174.365C235.904 179.428 237.57 184.079 239.474 188.666C240.252 190.54 240.994 192.433 240.943 194.537C240.925 195.277 240.758 195.475 239.982 195.368C236.727 194.919 234.347 193.159 232.505 190.544C229.977 186.956 228.936 182.83 228.281 178.593C228.035 177.003 228.056 175.375 227.955 173.476ZM194.978 56.3766C195.142 57.2772 195.337 58.7647 195.684 60.2095C196.604 64.0126 197.837 67.7174 199.151 71.4004C200.194 74.3315 201.307 77.2333 202.423 80.1348C203.639 83.3017 204.945 86.434 206.255 89.566C207.703 93.0279 209.178 96.4798 210.683 99.9174C212.012 102.956 213.399 105.975 214.753 109.004C214.971 109.496 215.21 109.653 215.606 109.161C216.585 107.953 217.999 107.516 219.421 107.337C222.663 106.935 225.925 107.288 229.177 107.332C230.235 107.347 230.61 107.002 230.211 105.999C229.653 104.588 229.014 103.211 228.415 101.815C227.392 99.4256 226.366 97.0365 225.367 94.6373C224.062 91.5092 222.789 88.3708 221.487 85.2425C220.377 82.5786 219.238 79.929 218.132 77.2649C216.849 74.1689 215.627 71.0482 214.304 67.9713C212.766 64.3979 211.18 60.8484 209.399 57.3859C208.096 54.8507 206.777 52.3291 204.755 50.2596C201.899 47.3345 197.905 47.5152 195.912 50.7356C194.966 52.2676 194.822 54.018 194.969 56.3688L194.978 56.3766ZM268.448 47.791C267.845 47.9739 267.123 48.0513 266.478 48.4414C264.589 49.5797 263.383 51.3196 262.34 53.175C259.317 58.5465 257.659 64.4404 255.906 70.2859C254.799 73.9828 253.891 77.7385 252.857 81.4561C251.842 85.1014 250.756 88.7302 249.746 92.3794C248.483 96.9337 247.283 101.505 246.015 106.06C245.477 107.997 245.507 108.083 247.476 108.243C251.636 108.586 255.776 109.086 259.911 109.632C260.458 109.703 260.836 109.667 260.903 108.983C260.936 108.634 261.162 108.307 261.266 107.958C262.302 104.395 263.334 100.828 264.366 97.265C265.159 94.5269 265.979 91.7998 266.739 89.0554C267.674 85.6864 268.567 82.3075 269.463 78.9283C270.129 76.4152 270.807 73.9055 271.409 71.3754C272.194 68.0782 272.949 64.7745 273.649 61.4615C274.265 58.5505 274.955 55.6057 274.234 52.6258C273.44 49.3245 271.703 47.8182 268.452 47.7949L268.448 47.791ZM222.292 166.32C222.882 166.209 223.466 166.323 224.013 165.985C226.895 164.202 228.391 161.475 226.929 157.634C225.427 153.691 223.734 149.822 221.774 146.095C219.1 141.008 216.103 136.107 212.633 131.516C210.238 128.345 207.631 125.384 204.057 123.476C201.842 122.295 199.495 121.883 197.291 123.337C195.034 124.823 193.348 126.906 192.217 129.385C191.499 130.965 191.629 132.628 192.159 134.187C193.22 137.339 194.941 140.166 196.768 142.928C199.33 146.806 202.311 150.354 205.368 153.848C208.937 157.924 212.752 161.726 217.36 164.628C218.846 165.561 220.417 166.471 222.292 166.328L222.292 166.32Z"/>
</mask>
<path d="M227.955 173.476C227.947 173.33 227.77 173.26 227.659 173.356C225.65 175.093 223.511 175.059 221.344 174.752C220.105 174.576 219.992 174.717 220.321 175.996C221 178.648 221.212 181.304 219.91 183.86C216.837 189.907 210.378 191.792 204.115 189.964C200.874 189.017 197.991 187.418 195.347 185.357C190.638 181.688 186.468 177.611 185.112 171.467C184.719 169.682 184.784 167.936 185.627 166.281C185.866 165.816 186.051 165.633 186.557 166.187C188.485 168.292 190.338 170.455 192.187 172.627C195.003 175.939 198.055 178.998 202.133 180.746C204.959 181.956 207.761 182.153 210.352 180.057C211.988 178.734 212.375 177.47 211.807 175.55C211.313 173.888 210.366 172.472 209.465 171.044C206.803 166.841 203.499 163.138 200.133 159.5C197.598 156.76 195.003 154.07 191.849 151.998C189.695 150.584 187.564 150.292 185.231 151.62C181.271 153.871 179.203 157.493 178.294 161.704C177.291 166.351 178.29 170.901 180.067 175.245C181.785 179.442 184.168 183.264 186.963 186.832C190.224 190.998 193.862 194.786 198.239 197.794C204.037 201.776 210.369 204.464 217.323 205.765C220.703 206.399 224.103 206.743 227.504 206.762C233.696 206.798 239.799 205.858 245.676 203.884C249.511 202.597 253.144 200.806 256.555 198.593C262.14 194.97 266.815 190.396 270.789 185.083C274.327 180.357 277.155 175.231 279.114 169.67C280.723 165.095 281.785 160.39 282.359 155.543C282.757 152.203 282.983 148.852 282.926 145.518C282.824 139.865 282.23 135.325 280.482 129.864C279.501 126.795 277.922 124.252 275.053 122.618C272.885 121.38 270.569 120.515 268.197 119.774C257.97 116.569 246.351 115.183 235.635 115.434C231.544 115.529 227.599 114.202 223.556 115.021C221.65 115.408 219.916 116.291 219.334 118.385C218.203 122.451 219.948 127.165 223.167 129.742C226.657 132.537 230.873 133.462 235.137 134.137C237.246 134.473 239.388 134.609 241.531 134.75C244.379 134.94 247.228 135.026 250.065 134.974C254.396 134.894 258.716 134.505 263.044 134.25C265.565 134.096 267.252 135.247 267.892 137.659C268.086 138.391 268.539 139.169 267.56 139.893C265.578 141.359 263.445 142.545 261.232 143.586C258.171 145.03 255.063 146.397 252.297 148.374C245.985 152.881 241.426 158.806 238.328 165.886C237.144 168.593 236.361 171.427 236.193 174.365C235.904 179.428 237.57 184.079 239.474 188.666C240.252 190.54 240.994 192.433 240.943 194.537C240.925 195.277 240.758 195.475 239.982 195.368C236.727 194.919 234.347 193.159 232.505 190.544C229.977 186.956 228.936 182.83 228.281 178.593C228.035 177.003 228.056 175.375 227.955 173.476ZM194.978 56.3766C195.142 57.2772 195.337 58.7647 195.684 60.2095C196.604 64.0126 197.837 67.7174 199.151 71.4004C200.194 74.3315 201.307 77.2333 202.423 80.1348C203.639 83.3017 204.945 86.434 206.255 89.566C207.703 93.0279 209.178 96.4798 210.683 99.9174C212.012 102.956 213.399 105.975 214.753 109.004C214.971 109.496 215.21 109.653 215.606 109.161C216.585 107.953 217.999 107.516 219.421 107.337C222.663 106.935 225.925 107.288 229.177 107.332C230.235 107.347 230.61 107.002 230.211 105.999C229.653 104.588 229.014 103.211 228.415 101.815C227.392 99.4256 226.366 97.0365 225.367 94.6373C224.062 91.5092 222.789 88.3708 221.487 85.2425C220.377 82.5786 219.238 79.929 218.132 77.2649C216.849 74.1689 215.627 71.0482 214.304 67.9713C212.766 64.3979 211.18 60.8484 209.399 57.3859C208.096 54.8507 206.777 52.3291 204.755 50.2596C201.899 47.3345 197.905 47.5152 195.912 50.7356C194.966 52.2676 194.822 54.018 194.969 56.3688L194.978 56.3766ZM268.448 47.791C267.845 47.9739 267.123 48.0513 266.478 48.4414C264.589 49.5797 263.383 51.3196 262.34 53.175C259.317 58.5465 257.659 64.4404 255.906 70.2859C254.799 73.9828 253.891 77.7385 252.857 81.4561C251.842 85.1014 250.756 88.7302 249.746 92.3794C248.483 96.9337 247.283 101.505 246.015 106.06C245.477 107.997 245.507 108.083 247.476 108.243C251.636 108.586 255.776 109.086 259.911 109.632C260.458 109.703 260.836 109.667 260.903 108.983C260.936 108.634 261.162 108.307 261.266 107.958C262.302 104.395 263.334 100.828 264.366 97.265C265.159 94.5269 265.979 91.7998 266.739 89.0554C267.674 85.6864 268.567 82.3075 269.463 78.9283C270.129 76.4152 270.807 73.9055 271.409 71.3754C272.194 68.0782 272.949 64.7745 273.649 61.4615C274.265 58.5505 274.955 55.6057 274.234 52.6258C273.44 49.3245 271.703 47.8182 268.452 47.7949L268.448 47.791ZM222.292 166.32C222.882 166.209 223.466 166.323 224.013 165.985C226.895 164.202 228.391 161.475 226.929 157.634C225.427 153.691 223.734 149.822 221.774 146.095C219.1 141.008 216.103 136.107 212.633 131.516C210.238 128.345 207.631 125.384 204.057 123.476C201.842 122.295 199.495 121.883 197.291 123.337C195.034 124.823 193.348 126.906 192.217 129.385C191.499 130.965 191.629 132.628 192.159 134.187C193.22 137.339 194.941 140.166 196.768 142.928C199.33 146.806 202.311 150.354 205.368 153.848C208.937 157.924 212.752 161.726 217.36 164.628C218.846 165.561 220.417 166.471 222.292 166.328L222.292 166.32Z" fill="white"/>
<path d="M227.955 173.476C227.947 173.33 227.77 173.26 227.659 173.356C225.65 175.093 223.511 175.059 221.344 174.752C220.105 174.576 219.992 174.717 220.321 175.996C221 178.648 221.212 181.304 219.91 183.86C216.837 189.907 210.378 191.792 204.115 189.964C200.874 189.017 197.991 187.418 195.347 185.357C190.638 181.688 186.468 177.611 185.112 171.467C184.719 169.682 184.784 167.936 185.627 166.281C185.866 165.816 186.051 165.633 186.557 166.187C188.485 168.292 190.338 170.455 192.187 172.627C195.003 175.939 198.055 178.998 202.133 180.746C204.959 181.956 207.761 182.153 210.352 180.057C211.988 178.734 212.375 177.47 211.807 175.55C211.313 173.888 210.366 172.472 209.465 171.044C206.803 166.841 203.499 163.138 200.133 159.5C197.598 156.76 195.003 154.07 191.849 151.998C189.695 150.584 187.564 150.292 185.231 151.62C181.271 153.871 179.203 157.493 178.294 161.704C177.291 166.351 178.29 170.901 180.067 175.245C181.785 179.442 184.168 183.264 186.963 186.832C190.224 190.998 193.862 194.786 198.239 197.794C204.037 201.776 210.369 204.464 217.323 205.765C220.703 206.399 224.103 206.743 227.504 206.762C233.696 206.798 239.799 205.858 245.676 203.884C249.511 202.597 253.144 200.806 256.555 198.593C262.14 194.97 266.815 190.396 270.789 185.083C274.327 180.357 277.155 175.231 279.114 169.67C280.723 165.095 281.785 160.39 282.359 155.543C282.757 152.203 282.983 148.852 282.926 145.518C282.824 139.865 282.23 135.325 280.482 129.864C279.501 126.795 277.922 124.252 275.053 122.618C272.885 121.38 270.569 120.515 268.197 119.774C257.97 116.569 246.351 115.183 235.635 115.434C231.544 115.529 227.599 114.202 223.556 115.021C221.65 115.408 219.916 116.291 219.334 118.385C218.203 122.451 219.948 127.165 223.167 129.742C226.657 132.537 230.873 133.462 235.137 134.137C237.246 134.473 239.388 134.609 241.531 134.75C244.379 134.94 247.228 135.026 250.065 134.974C254.396 134.894 258.716 134.505 263.044 134.25C265.565 134.096 267.252 135.247 267.892 137.659C268.086 138.391 268.539 139.169 267.56 139.893C265.578 141.359 263.445 142.545 261.232 143.586C258.171 145.03 255.063 146.397 252.297 148.374C245.985 152.881 241.426 158.806 238.328 165.886C237.144 168.593 236.361 171.427 236.193 174.365C235.904 179.428 237.57 184.079 239.474 188.666C240.252 190.54 240.994 192.433 240.943 194.537C240.925 195.277 240.758 195.475 239.982 195.368C236.727 194.919 234.347 193.159 232.505 190.544C229.977 186.956 228.936 182.83 228.281 178.593C228.035 177.003 228.056 175.375 227.955 173.476ZM194.978 56.3766C195.142 57.2772 195.337 58.7647 195.684 60.2095C196.604 64.0126 197.837 67.7174 199.151 71.4004C200.194 74.3315 201.307 77.2333 202.423 80.1348C203.639 83.3017 204.945 86.434 206.255 89.566C207.703 93.0279 209.178 96.4798 210.683 99.9174C212.012 102.956 213.399 105.975 214.753 109.004C214.971 109.496 215.21 109.653 215.606 109.161C216.585 107.953 217.999 107.516 219.421 107.337C222.663 106.935 225.925 107.288 229.177 107.332C230.235 107.347 230.61 107.002 230.211 105.999C229.653 104.588 229.014 103.211 228.415 101.815C227.392 99.4256 226.366 97.0365 225.367 94.6373C224.062 91.5092 222.789 88.3708 221.487 85.2425C220.377 82.5786 219.238 79.929 218.132 77.2649C216.849 74.1689 215.627 71.0482 214.304 67.9713C212.766 64.3979 211.18 60.8484 209.399 57.3859C208.096 54.8507 206.777 52.3291 204.755 50.2596C201.899 47.3345 197.905 47.5152 195.912 50.7356C194.966 52.2676 194.822 54.018 194.969 56.3688L194.978 56.3766ZM268.448 47.791C267.845 47.9739 267.123 48.0513 266.478 48.4414C264.589 49.5797 263.383 51.3196 262.34 53.175C259.317 58.5465 257.659 64.4404 255.906 70.2859C254.799 73.9828 253.891 77.7385 252.857 81.4561C251.842 85.1014 250.756 88.7302 249.746 92.3794C248.483 96.9337 247.283 101.505 246.015 106.06C245.477 107.997 245.507 108.083 247.476 108.243C251.636 108.586 255.776 109.086 259.911 109.632C260.458 109.703 260.836 109.667 260.903 108.983C260.936 108.634 261.162 108.307 261.266 107.958C262.302 104.395 263.334 100.828 264.366 97.265C265.159 94.5269 265.979 91.7998 266.739 89.0554C267.674 85.6864 268.567 82.3075 269.463 78.9283C270.129 76.4152 270.807 73.9055 271.409 71.3754C272.194 68.0782 272.949 64.7745 273.649 61.4615C274.265 58.5505 274.955 55.6057 274.234 52.6258C273.44 49.3245 271.703 47.8182 268.452 47.7949L268.448 47.791ZM222.292 166.32C222.882 166.209 223.466 166.323 224.013 165.985C226.895 164.202 228.391 161.475 226.929 157.634C225.427 153.691 223.734 149.822 221.774 146.095C219.1 141.008 216.103 136.107 212.633 131.516C210.238 128.345 207.631 125.384 204.057 123.476C201.842 122.295 199.495 121.883 197.291 123.337C195.034 124.823 193.348 126.906 192.217 129.385C191.499 130.965 191.629 132.628 192.159 134.187C193.22 137.339 194.941 140.166 196.768 142.928C199.33 146.806 202.311 150.354 205.368 153.848C208.937 157.924 212.752 161.726 217.36 164.628C218.846 165.561 220.417 166.471 222.292 166.328L222.292 166.32Z" stroke="white" stroke-width="2.6" mask="url(#path-3-outside-1_72_4769)"/>
<path d="M246.465 143.435L246.996 143.011L246.318 143.051C245.421 143.103 244.6 143.059 243.809 142.997C243.629 142.983 243.451 142.969 243.273 142.954C242.672 142.904 242.08 142.854 241.489 142.844L241.489 142.844C238.413 142.799 235.39 142.373 232.374 141.757C231.588 141.596 230.798 141.456 230.012 141.317C229.804 141.28 229.598 141.243 229.391 141.206C229.243 141.18 229.099 141.166 228.968 141.176C228.837 141.185 228.702 141.22 228.592 141.307C228.356 141.493 228.349 141.807 228.442 142.146C228.524 143.287 229.051 144.905 229.665 146.447C230.286 148.007 231.007 149.518 231.482 150.434C232.177 151.774 233.685 154.29 234.584 155.588L234.761 155.844L234.938 155.589C238.167 150.954 241.955 147.041 246.465 143.435Z" fill="white" stroke="white" stroke-width="0.431794"/>
</svg>
