<svg width="216" height="239" viewBox="0 0 216 239" fill="none" xmlns="http://www.w3.org/2000/svg">
<path d="M53.1128 160.914L52.7346 154.706C52.9431 154.517 52.8965 154.268 52.8898 154.029C52.8082 151.787 53.1842 149.576 53.8496 147.473C56.0537 140.511 61.2789 136.837 67.989 134.904C68.7921 134.675 68.9041 134.255 68.5873 133.634C67.4451 131.394 66.4608 129.101 65.6855 126.692C64.6249 123.406 65.0538 120.386 66.6804 117.423C68.2438 114.582 70.3528 112.187 72.8131 110.139C76.1034 107.401 79.8348 106.356 84.0956 107.617C85.8038 108.122 87.4129 108.869 89.1022 109.449C89.2374 109.025 88.8925 108.845 88.7861 108.581C87.7042 105.912 86.6072 103.253 85.5138 100.589C84.4751 98.0477 83.4324 95.5066 82.4012 92.9608C81.352 90.3769 80.3067 87.7927 79.2651 85.2044C78.5154 83.3447 77.7542 81.4896 77.0429 79.6158C76.1162 77.1737 75.2244 74.7216 74.3361 72.2654C73.5612 70.1204 72.7246 67.995 72.0612 65.8118C71.2149 63.0112 70.3453 60.216 69.7302 57.3424C69.0719 54.275 68.9505 51.2495 69.647 48.1742C70.8018 43.0753 73.7046 39.5866 78.8439 38.2442C80.5918 37.7881 82.4399 37.5577 84.218 38.1761C85.6388 38.671 86.8335 39.5804 87.9287 40.5979C92.3647 44.7355 95.3975 49.8937 98.3581 55.0915C100.338 58.5656 102.12 62.1499 103.84 65.7576C105.475 69.1897 107.145 72.6041 108.589 76.1226C109.774 79.0125 111.037 81.8702 112.238 84.7553C113.306 87.3224 114.305 89.9212 115.403 92.4746C115.847 93.5122 116.121 94.6505 116.935 95.6892C117.397 94.2506 117.854 92.9814 118.215 91.6865C119.283 87.8657 120.214 84.0061 121.386 80.2183C122.587 76.3266 123.788 72.4348 125.092 68.5721C127.193 62.3627 129.515 56.2459 132.41 50.3652C134.116 46.9024 136.032 43.5328 138.695 40.6834C141.015 38.1967 143.653 36.4999 147.34 36.9824C151.276 37.493 154.293 39.2853 156.376 42.6509C158.642 46.3196 158.908 50.3577 158.572 54.5189C158.321 57.6182 157.728 60.6596 157.195 63.7092C156.778 66.0839 156.146 68.4206 155.61 70.7751C155.021 73.3606 154.484 75.9587 153.831 78.5285C153.024 81.7127 152.076 84.8622 151.272 88.0462C150.469 91.2419 149.566 94.4044 148.643 97.5643C147.956 99.9082 147.326 102.268 146.665 104.63C148.7 104.95 150.654 105.366 152.571 106.015C156.462 107.33 159.652 109.516 161.925 112.98C164.684 117.188 165.84 121.974 166.395 126.831C166.95 131.684 167.308 136.589 167.171 141.496C167.096 144.141 166.923 146.784 166.544 149.388C166.109 152.376 165.512 155.347 164.7 158.276C163.51 162.588 161.907 166.72 159.806 170.663C156.657 176.567 152.664 181.819 147.815 186.444C143.894 190.183 139.531 193.309 134.713 195.739C129.366 198.438 123.697 200.249 117.767 201.25C116.706 201.429 115.583 201.309 114.576 201.806L105.679 202.348C105.426 202.061 105.1 202.199 104.803 202.209C102.501 202.279 100.207 202.037 97.9547 201.687C94.8414 201.205 91.7777 200.441 88.75 199.494C83.3953 197.817 78.4094 195.422 73.9241 192.089C66.447 186.525 60.0798 179.964 56.2056 171.313C55.2462 169.172 54.4598 166.969 53.9229 164.668C53.6306 163.417 53.5438 162.121 53.1121 160.902L53.1128 160.914ZM107.427 162.881C105.463 164.753 103.36 164.732 101.228 164.43C100.063 164.265 99.9572 164.397 100.266 165.6C100.905 168.095 101.105 170.593 99.8801 172.998C96.9894 178.685 90.9138 180.458 85.0223 178.739C81.9745 177.848 79.2625 176.344 76.7754 174.405C72.3459 170.955 68.4234 167.12 67.148 161.34C66.7786 159.661 66.8397 158.019 67.6327 156.462C67.8574 156.024 68.0316 155.853 68.5073 156.374C70.3211 158.353 72.0636 160.388 73.8027 162.431C76.4518 165.546 79.3221 168.424 83.1584 170.068C85.8166 171.206 88.4522 171.392 90.8896 169.42C92.4284 168.175 92.7921 166.987 92.2578 165.18C91.7933 163.618 90.9028 162.285 90.0549 160.942C87.5512 156.989 84.4436 153.505 81.277 150.084C78.8925 147.507 76.4519 144.976 73.4849 143.028C71.4593 141.698 69.4547 141.423 67.2601 142.672C63.5351 144.789 61.5898 148.196 60.735 152.157C59.7913 156.528 60.7317 160.808 62.4027 164.894C64.0183 168.842 66.2605 172.437 68.8889 175.793C71.9562 179.712 75.379 183.275 79.4956 186.104C84.9488 189.849 90.9054 192.378 97.4464 193.602C100.626 194.198 103.823 194.522 107.022 194.539C112.847 194.573 118.587 193.689 124.116 191.832C127.723 190.622 131.14 188.937 134.349 186.856C139.602 183.448 143.999 179.145 147.737 174.148C151.065 169.702 153.726 164.881 155.568 159.65C157.081 155.346 158.081 150.921 158.62 146.362C158.994 143.22 159.207 140.068 159.153 136.933C159.057 131.615 158.679 126.303 157.034 121.167C156.112 118.28 154.626 115.888 151.928 114.351C149.889 113.187 147.71 112.373 145.479 111.676C142.52 110.748 139.492 110.12 136.455 109.546C134.051 109.096 131.612 108.789 129.183 108.501C126.84 108.223 124.488 108.048 122.139 107.857C119.707 107.66 117.26 107.538 114.851 107.594C111.002 107.683 107.112 107.476 103.309 108.246C101.516 108.611 99.8856 109.441 99.3378 111.411C98.2743 115.235 99.9155 119.669 102.943 122.093C106.226 124.722 110.192 125.592 114.203 126.227C116.186 126.543 118.201 126.671 120.217 126.804C122.895 126.982 125.576 127.063 128.244 127.014C132.317 126.939 136.381 126.573 140.452 126.333C142.824 126.189 144.41 127.271 145.012 129.54C145.195 130.228 145.621 130.961 144.7 131.641C142.835 133.02 140.829 134.136 138.748 135.115C135.868 136.473 132.945 137.759 130.344 139.619C124.407 143.858 120.118 149.431 117.204 156.09C116.091 158.637 115.353 161.302 115.196 164.066C114.924 168.828 116.491 173.203 118.282 177.518C119.014 179.28 119.712 181.061 119.663 183.04C119.647 183.736 119.489 183.923 118.76 183.822C115.698 183.399 113.46 181.744 111.727 179.284C109.349 175.909 108.37 172.029 107.754 168.043C107.507 166.451 107.534 164.82 107.416 162.882L107.427 162.881ZM76.4286 53.0882C76.5823 53.9353 76.7658 55.3344 77.0921 56.6935C77.9583 60.2707 79.1174 63.7555 80.3538 67.2198C81.335 69.9768 82.3812 72.7063 83.4314 75.4355C84.5754 78.4144 85.8038 81.3607 87.0362 84.3067C88.3974 87.563 89.7856 90.8099 91.2004 94.0434C92.451 96.9018 93.7554 99.7413 95.029 102.59C95.234 103.053 95.459 103.201 95.8315 102.738C96.7523 101.602 98.0826 101.191 99.4199 101.023C102.469 100.644 105.538 100.976 108.597 101.017C109.592 101.032 109.945 100.707 109.569 99.7639C109.045 98.4366 108.443 97.1415 107.88 95.8283C106.918 93.5808 105.952 91.3336 105.013 89.0768C103.785 86.1345 102.588 83.1825 101.363 80.2399C100.319 77.7342 99.2479 75.242 98.2074 72.7361C97.0007 69.8239 95.8515 66.8885 94.6066 63.9944C93.1604 60.6332 91.6684 57.2944 89.9929 54.0376C88.7672 51.6529 87.5266 49.281 85.6245 47.3344C82.9386 44.583 79.1815 44.753 77.3075 47.7822C76.417 49.2232 76.2816 50.8697 76.4203 53.0809L76.4286 53.0882ZM145.535 45.0124C144.968 45.1844 144.289 45.2572 143.683 45.6242C141.906 46.695 140.772 48.3315 139.79 50.0767C136.947 55.1292 135.387 60.6732 133.738 66.1715C132.697 69.6489 131.843 73.1816 130.87 76.6784C129.916 80.1072 128.894 83.5205 127.945 86.953C126.756 91.2369 125.627 95.5367 124.435 99.8208C123.929 101.643 123.957 101.724 125.809 101.874C129.722 102.198 133.616 102.668 137.505 103.181C138.02 103.248 138.376 103.214 138.439 102.57C138.47 102.242 138.683 101.935 138.781 101.606C139.755 98.255 140.725 94.8998 141.696 91.5485C142.442 88.973 143.213 86.4079 143.928 83.8264C144.808 80.6575 145.647 77.4792 146.491 74.3007C147.117 71.9368 147.755 69.5762 148.321 67.1963C149.059 64.0949 149.769 60.9873 150.428 57.8711C151.008 55.133 151.656 52.3631 150.978 49.5601C150.231 46.4549 148.597 45.038 145.539 45.0161L145.535 45.0124ZM102.12 156.502C102.676 156.398 103.224 156.506 103.739 156.188C106.45 154.51 107.857 151.945 106.482 148.332C105.07 144.624 103.477 140.984 101.633 137.479C99.1179 132.694 96.2992 128.084 93.0347 123.765C90.7827 120.783 88.3305 117.998 84.9683 116.203C82.8852 115.092 80.6773 114.704 78.6039 116.072C76.4812 117.47 74.8955 119.429 73.8315 121.761C73.156 123.248 73.2788 124.812 73.7767 126.278C74.7744 129.242 76.3939 131.902 78.1118 134.5C80.5223 138.148 83.3263 141.485 86.2019 144.771C89.5587 148.605 93.1473 152.182 97.4818 154.911C98.8788 155.789 100.357 156.645 102.121 156.51L102.12 156.502ZM113.849 146.289C116.898 141.911 120.476 138.22 124.732 134.818C123.017 134.919 121.598 134.648 120.175 134.624C117.265 134.582 114.408 134.178 111.564 133.597C110.633 133.406 109.696 133.247 108.763 133.08C108.242 132.986 107.927 133.104 108.107 133.729C108.191 134.023 108.279 134.292 108.429 134.578C109.837 137.167 111.175 139.785 112.277 142.531C112.767 143.746 113.01 145.079 113.85 146.293L113.849 146.289Z" fill="black"/>
<mask id="path-2-outside-1_72_5016" maskUnits="userSpaceOnUse" x="50.6052" y="37.8067" width="114.292" height="162.096" fill="black">
<rect fill="white" x="50.6052" y="37.8067" width="114.292" height="162.096"/>
<path d="M107.536 163.432C107.524 163.192 107.233 163.076 107.046 163.226C105.214 164.693 103.271 164.653 101.304 164.374C100.138 164.21 100.033 164.342 100.342 165.545C100.981 168.04 101.18 170.538 99.9555 172.942C97.0649 178.63 90.9893 180.403 85.0977 178.683C82.0499 177.793 79.3379 176.288 76.8509 174.35C72.4214 170.899 68.4988 167.064 67.2235 161.284C66.8541 159.606 66.9151 157.964 67.7081 156.407C67.9329 155.969 68.107 155.797 68.5827 156.318C70.3965 158.298 72.1391 160.333 73.8782 162.376C76.5272 165.491 79.3975 168.369 83.2338 170.013C85.8921 171.151 88.5276 171.336 90.9651 169.365C92.5039 168.12 92.8675 166.931 92.3332 165.125C91.8687 163.562 90.9782 162.23 90.1303 160.887C87.6267 156.934 84.5191 153.45 81.3524 150.029C78.9679 147.451 76.5273 144.921 73.5604 142.972C71.5347 141.642 69.5301 141.368 67.3355 142.617C63.6105 144.734 61.6652 148.14 60.8104 152.101C59.8667 156.472 60.8071 160.752 62.4782 164.838C64.0937 168.786 66.336 172.382 68.9643 175.738C72.0316 179.656 75.4544 183.219 79.5711 186.048C85.0243 189.794 90.9808 192.323 97.5218 193.547C100.701 194.143 103.899 194.466 107.098 194.484C112.922 194.518 118.663 193.634 124.191 191.776C127.799 190.567 131.216 188.881 134.424 186.8C139.678 183.392 144.075 179.09 147.813 174.093C151.141 169.647 153.801 164.826 155.643 159.595C157.157 155.291 158.156 150.865 158.695 146.307C159.07 143.165 159.282 140.013 159.229 136.877C159.133 131.56 158.574 127.289 156.93 122.152C156.007 119.266 154.522 116.874 151.824 115.337C149.785 114.173 147.606 113.358 145.375 112.662C135.755 109.647 124.826 108.344 114.747 108.58C110.898 108.669 107.188 107.421 103.385 108.191C101.592 108.555 99.961 109.385 99.4132 111.356C98.3498 115.18 99.9909 119.614 103.018 122.038C106.302 124.666 110.267 125.536 114.278 126.172C116.261 126.487 118.277 126.616 120.292 126.749C122.971 126.927 125.651 127.007 128.32 126.959C132.393 126.884 136.456 126.518 140.527 126.278C142.899 126.133 144.486 127.215 145.087 129.485C145.271 130.173 145.696 130.905 144.775 131.586C142.911 132.965 140.904 134.081 138.823 135.06C135.944 136.418 133.021 137.704 130.419 139.563C124.482 143.803 120.194 149.375 117.28 156.035C116.166 158.582 115.429 161.247 115.271 164.011C114.999 168.773 116.566 173.148 118.357 177.463C119.089 179.225 119.787 181.006 119.739 182.985C119.722 183.681 119.565 183.867 118.836 183.766C115.773 183.344 113.535 181.689 111.802 179.229C109.424 175.854 108.445 171.973 107.829 167.988C107.609 166.565 107.616 165.109 107.536 163.432ZM76.5038 53.0289C76.6575 53.876 76.841 55.2752 77.1673 56.6342C78.0335 60.2115 79.1926 63.6962 80.429 67.1606C81.4101 69.9176 82.4564 72.647 83.5066 75.3763C84.6506 78.3552 85.879 81.3014 87.1114 84.2474C88.4726 87.5038 89.8608 90.7506 91.2756 93.9841C92.5262 96.8426 93.8306 99.682 95.1042 102.531C95.3092 102.994 95.5342 103.141 95.9067 102.679C96.8275 101.542 98.1578 101.131 99.4951 100.963C102.544 100.585 105.613 100.917 108.672 100.958C109.667 100.972 110.02 100.648 109.644 99.7047C109.12 98.3774 108.518 97.0822 107.955 95.769C106.993 93.5216 106.027 91.2743 105.088 89.0176C103.86 86.0753 102.663 83.1232 101.439 80.1806C100.394 77.675 99.3231 75.1827 98.2825 72.6768C97.0758 69.7646 95.9267 66.8293 94.6818 63.9351C93.2356 60.5739 91.7436 57.2352 90.068 53.9783C88.8424 51.5937 87.6018 49.2218 85.6997 47.2751C83.0138 44.5238 79.2567 44.6937 77.3827 47.7229C76.4922 49.1639 76.3568 50.8104 76.4955 53.0216L76.5038 53.0289ZM145.61 44.9531C145.043 45.1252 144.364 45.198 143.758 45.5649C141.981 46.6357 140.847 48.2723 139.865 50.0175C137.022 55.0699 135.462 60.6139 133.813 66.1122C132.772 69.5896 131.919 73.1223 130.945 76.6191C129.991 80.048 128.97 83.4613 128.02 86.8938C126.831 91.1776 125.702 95.4775 124.51 99.7616C124.004 101.584 124.032 101.665 125.884 101.815C129.797 102.138 133.691 102.608 137.581 103.122C138.095 103.189 138.451 103.155 138.514 102.511C138.545 102.183 138.758 101.875 138.856 101.547C139.83 98.1957 140.8 94.8405 141.771 91.4893C142.517 88.9138 143.288 86.3486 144.003 83.7672C144.883 80.5982 145.722 77.4199 146.566 74.2414C147.192 71.8776 147.83 69.5169 148.396 67.1371C149.134 64.0357 149.844 60.9281 150.503 57.8119C151.083 55.0737 151.731 52.3038 151.054 49.5008C150.307 46.3956 148.672 44.9787 145.615 44.9568L145.61 44.9531ZM102.195 156.443C102.751 156.339 103.299 156.447 103.814 156.129C106.525 154.451 107.932 151.886 106.557 148.273C105.145 144.564 103.552 140.925 101.708 137.419C99.1931 132.634 96.3744 128.025 93.1099 123.706C90.8578 120.724 88.4057 117.939 85.0435 116.144C82.9604 115.033 80.7525 114.645 78.679 116.013C76.5564 117.411 74.9707 119.37 73.9067 121.702C73.2312 123.188 73.354 124.752 73.8519 126.219C74.8496 129.183 76.4691 131.842 78.187 134.44C80.5975 138.089 83.4015 141.426 86.2771 144.712C89.6339 148.546 93.2225 152.122 97.557 154.852C98.954 155.729 100.432 156.586 102.196 156.451L102.195 156.443Z"/>
</mask>
<path d="M107.536 163.432C107.524 163.192 107.233 163.076 107.046 163.226C105.214 164.693 103.271 164.653 101.304 164.374C100.138 164.21 100.033 164.342 100.342 165.545C100.981 168.04 101.18 170.538 99.9555 172.942C97.0649 178.63 90.9893 180.403 85.0977 178.683C82.0499 177.793 79.3379 176.288 76.8509 174.35C72.4214 170.899 68.4988 167.064 67.2235 161.284C66.8541 159.606 66.9151 157.964 67.7081 156.407C67.9329 155.969 68.107 155.797 68.5827 156.318C70.3965 158.298 72.1391 160.333 73.8782 162.376C76.5272 165.491 79.3975 168.369 83.2338 170.013C85.8921 171.151 88.5276 171.336 90.9651 169.365C92.5039 168.12 92.8675 166.931 92.3332 165.125C91.8687 163.562 90.9782 162.23 90.1303 160.887C87.6267 156.934 84.5191 153.45 81.3524 150.029C78.9679 147.451 76.5273 144.921 73.5604 142.972C71.5347 141.642 69.5301 141.368 67.3355 142.617C63.6105 144.734 61.6652 148.14 60.8104 152.101C59.8667 156.472 60.8071 160.752 62.4782 164.838C64.0937 168.786 66.336 172.382 68.9643 175.738C72.0316 179.656 75.4544 183.219 79.5711 186.048C85.0243 189.794 90.9808 192.323 97.5218 193.547C100.701 194.143 103.899 194.466 107.098 194.484C112.922 194.518 118.663 193.634 124.191 191.776C127.799 190.567 131.216 188.881 134.424 186.8C139.678 183.392 144.075 179.09 147.813 174.093C151.141 169.647 153.801 164.826 155.643 159.595C157.157 155.291 158.156 150.865 158.695 146.307C159.07 143.165 159.282 140.013 159.229 136.877C159.133 131.56 158.574 127.289 156.93 122.152C156.007 119.266 154.522 116.874 151.824 115.337C149.785 114.173 147.606 113.358 145.375 112.662C135.755 109.647 124.826 108.344 114.747 108.58C110.898 108.669 107.188 107.421 103.385 108.191C101.592 108.555 99.961 109.385 99.4132 111.356C98.3498 115.18 99.9909 119.614 103.018 122.038C106.302 124.666 110.267 125.536 114.278 126.172C116.261 126.487 118.277 126.616 120.292 126.749C122.971 126.927 125.651 127.007 128.32 126.959C132.393 126.884 136.456 126.518 140.527 126.278C142.899 126.133 144.486 127.215 145.087 129.485C145.271 130.173 145.696 130.905 144.775 131.586C142.911 132.965 140.904 134.081 138.823 135.06C135.944 136.418 133.021 137.704 130.419 139.563C124.482 143.803 120.194 149.375 117.28 156.035C116.166 158.582 115.429 161.247 115.271 164.011C114.999 168.773 116.566 173.148 118.357 177.463C119.089 179.225 119.787 181.006 119.739 182.985C119.722 183.681 119.565 183.867 118.836 183.766C115.773 183.344 113.535 181.689 111.802 179.229C109.424 175.854 108.445 171.973 107.829 167.988C107.609 166.565 107.616 165.109 107.536 163.432ZM76.5038 53.0289C76.6575 53.876 76.841 55.2752 77.1673 56.6342C78.0335 60.2115 79.1926 63.6962 80.429 67.1606C81.4101 69.9176 82.4564 72.647 83.5066 75.3763C84.6506 78.3552 85.879 81.3014 87.1114 84.2474C88.4726 87.5038 89.8608 90.7506 91.2756 93.9841C92.5262 96.8426 93.8306 99.682 95.1042 102.531C95.3092 102.994 95.5342 103.141 95.9067 102.679C96.8275 101.542 98.1578 101.131 99.4951 100.963C102.544 100.585 105.613 100.917 108.672 100.958C109.667 100.972 110.02 100.648 109.644 99.7047C109.12 98.3774 108.518 97.0822 107.955 95.769C106.993 93.5216 106.027 91.2743 105.088 89.0176C103.86 86.0753 102.663 83.1232 101.439 80.1806C100.394 77.675 99.3231 75.1827 98.2825 72.6768C97.0758 69.7646 95.9267 66.8293 94.6818 63.9351C93.2356 60.5739 91.7436 57.2352 90.068 53.9783C88.8424 51.5937 87.6018 49.2218 85.6997 47.2751C83.0138 44.5238 79.2567 44.6937 77.3827 47.7229C76.4922 49.1639 76.3568 50.8104 76.4955 53.0216L76.5038 53.0289ZM145.61 44.9531C145.043 45.1252 144.364 45.198 143.758 45.5649C141.981 46.6357 140.847 48.2723 139.865 50.0175C137.022 55.0699 135.462 60.6139 133.813 66.1122C132.772 69.5896 131.919 73.1223 130.945 76.6191C129.991 80.048 128.97 83.4613 128.02 86.8938C126.831 91.1776 125.702 95.4775 124.51 99.7616C124.004 101.584 124.032 101.665 125.884 101.815C129.797 102.138 133.691 102.608 137.581 103.122C138.095 103.189 138.451 103.155 138.514 102.511C138.545 102.183 138.758 101.875 138.856 101.547C139.83 98.1957 140.8 94.8405 141.771 91.4893C142.517 88.9138 143.288 86.3486 144.003 83.7672C144.883 80.5982 145.722 77.4199 146.566 74.2414C147.192 71.8776 147.83 69.5169 148.396 67.1371C149.134 64.0357 149.844 60.9281 150.503 57.8119C151.083 55.0737 151.731 52.3038 151.054 49.5008C150.307 46.3956 148.672 44.9787 145.615 44.9568L145.61 44.9531ZM102.195 156.443C102.751 156.339 103.299 156.447 103.814 156.129C106.525 154.451 107.932 151.886 106.557 148.273C105.145 144.564 103.552 140.925 101.708 137.419C99.1931 132.634 96.3744 128.025 93.1099 123.706C90.8578 120.724 88.4057 117.939 85.0435 116.144C82.9604 115.033 80.7525 114.645 78.679 116.013C76.5564 117.411 74.9707 119.37 73.9067 121.702C73.2312 123.188 73.354 124.752 73.8519 126.219C74.8496 129.183 76.4691 131.842 78.187 134.44C80.5975 138.089 83.4015 141.426 86.2771 144.712C89.6339 148.546 93.2225 152.122 97.557 154.852C98.954 155.729 100.432 156.586 102.196 156.451L102.195 156.443Z" fill="white"/>
<path d="M107.536 163.432C107.524 163.192 107.233 163.076 107.046 163.226C105.214 164.693 103.271 164.653 101.304 164.374C100.138 164.21 100.033 164.342 100.342 165.545C100.981 168.04 101.18 170.538 99.9555 172.942C97.0649 178.63 90.9893 180.403 85.0977 178.683C82.0499 177.793 79.3379 176.288 76.8509 174.35C72.4214 170.899 68.4988 167.064 67.2235 161.284C66.8541 159.606 66.9151 157.964 67.7081 156.407C67.9329 155.969 68.107 155.797 68.5827 156.318C70.3965 158.298 72.1391 160.333 73.8782 162.376C76.5272 165.491 79.3975 168.369 83.2338 170.013C85.8921 171.151 88.5276 171.336 90.9651 169.365C92.5039 168.12 92.8675 166.931 92.3332 165.125C91.8687 163.562 90.9782 162.23 90.1303 160.887C87.6267 156.934 84.5191 153.45 81.3524 150.029C78.9679 147.451 76.5273 144.921 73.5604 142.972C71.5347 141.642 69.5301 141.368 67.3355 142.617C63.6105 144.734 61.6652 148.14 60.8104 152.101C59.8667 156.472 60.8071 160.752 62.4782 164.838C64.0937 168.786 66.336 172.382 68.9643 175.738C72.0316 179.656 75.4544 183.219 79.5711 186.048C85.0243 189.794 90.9808 192.323 97.5218 193.547C100.701 194.143 103.899 194.466 107.098 194.484C112.922 194.518 118.663 193.634 124.191 191.776C127.799 190.567 131.216 188.881 134.424 186.8C139.678 183.392 144.075 179.09 147.813 174.093C151.141 169.647 153.801 164.826 155.643 159.595C157.157 155.291 158.156 150.865 158.695 146.307C159.07 143.165 159.282 140.013 159.229 136.877C159.133 131.56 158.574 127.289 156.93 122.152C156.007 119.266 154.522 116.874 151.824 115.337C149.785 114.173 147.606 113.358 145.375 112.662C135.755 109.647 124.826 108.344 114.747 108.58C110.898 108.669 107.188 107.421 103.385 108.191C101.592 108.555 99.961 109.385 99.4132 111.356C98.3498 115.18 99.9909 119.614 103.018 122.038C106.302 124.666 110.267 125.536 114.278 126.172C116.261 126.487 118.277 126.616 120.292 126.749C122.971 126.927 125.651 127.007 128.32 126.959C132.393 126.884 136.456 126.518 140.527 126.278C142.899 126.133 144.486 127.215 145.087 129.485C145.271 130.173 145.696 130.905 144.775 131.586C142.911 132.965 140.904 134.081 138.823 135.06C135.944 136.418 133.021 137.704 130.419 139.563C124.482 143.803 120.194 149.375 117.28 156.035C116.166 158.582 115.429 161.247 115.271 164.011C114.999 168.773 116.566 173.148 118.357 177.463C119.089 179.225 119.787 181.006 119.739 182.985C119.722 183.681 119.565 183.867 118.836 183.766C115.773 183.344 113.535 181.689 111.802 179.229C109.424 175.854 108.445 171.973 107.829 167.988C107.609 166.565 107.616 165.109 107.536 163.432ZM76.5038 53.0289C76.6575 53.876 76.841 55.2752 77.1673 56.6342C78.0335 60.2115 79.1926 63.6962 80.429 67.1606C81.4101 69.9176 82.4564 72.647 83.5066 75.3763C84.6506 78.3552 85.879 81.3014 87.1114 84.2474C88.4726 87.5038 89.8608 90.7506 91.2756 93.9841C92.5262 96.8426 93.8306 99.682 95.1042 102.531C95.3092 102.994 95.5342 103.141 95.9067 102.679C96.8275 101.542 98.1578 101.131 99.4951 100.963C102.544 100.585 105.613 100.917 108.672 100.958C109.667 100.972 110.02 100.648 109.644 99.7047C109.12 98.3774 108.518 97.0822 107.955 95.769C106.993 93.5216 106.027 91.2743 105.088 89.0176C103.86 86.0753 102.663 83.1232 101.439 80.1806C100.394 77.675 99.3231 75.1827 98.2825 72.6768C97.0758 69.7646 95.9267 66.8293 94.6818 63.9351C93.2356 60.5739 91.7436 57.2352 90.068 53.9783C88.8424 51.5937 87.6018 49.2218 85.6997 47.2751C83.0138 44.5238 79.2567 44.6937 77.3827 47.7229C76.4922 49.1639 76.3568 50.8104 76.4955 53.0216L76.5038 53.0289ZM145.61 44.9531C145.043 45.1252 144.364 45.198 143.758 45.5649C141.981 46.6357 140.847 48.2723 139.865 50.0175C137.022 55.0699 135.462 60.6139 133.813 66.1122C132.772 69.5896 131.919 73.1223 130.945 76.6191C129.991 80.048 128.97 83.4613 128.02 86.8938C126.831 91.1776 125.702 95.4775 124.51 99.7616C124.004 101.584 124.032 101.665 125.884 101.815C129.797 102.138 133.691 102.608 137.581 103.122C138.095 103.189 138.451 103.155 138.514 102.511C138.545 102.183 138.758 101.875 138.856 101.547C139.83 98.1957 140.8 94.8405 141.771 91.4893C142.517 88.9138 143.288 86.3486 144.003 83.7672C144.883 80.5982 145.722 77.4199 146.566 74.2414C147.192 71.8776 147.83 69.5169 148.396 67.1371C149.134 64.0357 149.844 60.9281 150.503 57.8119C151.083 55.0737 151.731 52.3038 151.054 49.5008C150.307 46.3956 148.672 44.9787 145.615 44.9568L145.61 44.9531ZM102.195 156.443C102.751 156.339 103.299 156.447 103.814 156.129C106.525 154.451 107.932 151.886 106.557 148.273C105.145 144.564 103.552 140.925 101.708 137.419C99.1931 132.634 96.3744 128.025 93.1099 123.706C90.8578 120.724 88.4057 117.939 85.0435 116.144C82.9604 115.033 80.7525 114.645 78.679 116.013C76.5564 117.411 74.9707 119.37 73.9067 121.702C73.2312 123.188 73.354 124.752 73.8519 126.219C74.8496 129.183 76.4691 131.842 78.187 134.44C80.5975 138.089 83.4015 141.426 86.2771 144.712C89.6339 148.546 93.2225 152.122 97.557 154.852C98.954 155.729 100.432 156.586 102.196 156.451L102.195 156.443Z" stroke="white" stroke-width="4.24651" mask="url(#path-2-outside-1_72_5016)"/>
<path d="M125.027 135.034L125.893 134.342L124.786 134.406C123.953 134.455 123.188 134.414 122.446 134.356C122.28 134.343 122.113 134.33 121.946 134.316C121.38 134.268 120.817 134.221 120.255 134.212L120.255 134.212C117.374 134.17 114.54 133.77 111.709 133.192C110.968 133.04 110.222 132.908 109.482 132.777C109.287 132.743 109.093 132.708 108.9 132.674C108.754 132.647 108.605 132.632 108.464 132.643C108.324 132.653 108.164 132.692 108.029 132.798C107.736 133.03 107.745 133.402 107.832 133.73C107.914 134.827 108.417 136.361 108.992 137.805C109.578 139.278 110.258 140.704 110.707 141.569C111.364 142.835 112.786 145.207 113.634 146.434L113.923 146.851L114.214 146.434C117.241 142.088 120.794 138.418 125.027 135.034Z" fill="white" stroke="white" stroke-width="0.705238"/>
</svg>
