<?xml version="1.0" encoding="UTF-8" standalone="no"?>
<svg
   xmlns:dc="http://purl.org/dc/elements/1.1/"
   xmlns:cc="http://creativecommons.org/ns#"
   xmlns:rdf="http://www.w3.org/1999/02/22-rdf-syntax-ns#"
   xmlns:svg="http://www.w3.org/2000/svg"
   xmlns="http://www.w3.org/2000/svg"
   xmlns:sodipodi="http://sodipodi.sourceforge.net/DTD/sodipodi-0.dtd"
   xmlns:inkscape="http://www.inkscape.org/namespaces/inkscape"
   width="24"
   height="24"
   viewBox="0 0 24 24"
   version="1.1"
   id="svg4"
   sodipodi:docname="add.svg"
   inkscape:version="0.92.3 (2405546, 2018-03-11)">
  <metadata
     id="metadata10">
    <rdf:RDF>
      <cc:Work
         rdf:about="">
        <dc:format>image/svg+xml</dc:format>
        <dc:type
           rdf:resource="http://purl.org/dc/dcmitype/StillImage" />
        <dc:title></dc:title>
      </cc:Work>
    </rdf:RDF>
  </metadata>
  <defs
     id="defs8" />
  <sodipodi:namedview
     pagecolor="#ffffff"
     bordercolor="#666666"
     borderopacity="1"
     objecttolerance="10"
     gridtolerance="10"
     guidetolerance="10"
     inkscape:pageopacity="0"
     inkscape:pageshadow="2"
     inkscape:window-width="707"
     inkscape:window-height="480"
     id="namedview6"
     showgrid="false"
     inkscape:zoom="9.8333333"
     inkscape:cx="12"
     inkscape:cy="12"
     inkscape:window-x="0"
     inkscape:window-y="0"
     inkscape:window-maximized="0"
     inkscape:current-layer="svg4" />
  <path
     d="M 3.6367903,3.3943784 C -1.1156643,8.012961 -1.2242042,15.610755 3.3943784,20.36321 8.012961,25.115664 15.610755,25.224204 20.36321,20.605622 25.115664,15.987039 25.224204,8.3892448 20.605622,3.6367903 15.987039,-1.1156643 8.3892448,-1.2242042 3.6367903,3.3943784 Z M 17.670559,11.081057 c 0.35776,0.0051 0.683814,0.2 0.858977,0.512247 0.173748,0.312226 0.168314,0.692611 -0.01428,0.999747 -0.183293,0.306418 -0.515498,0.492611 -0.873258,0.4875 l -4.65653,-0.06652 -0.06652,4.65653 c -0.0079,0.551487 -0.462542,0.993343 -1.014029,0.985465 -0.551487,-0.0079 -0.993343,-0.462542 -0.985465,-1.014029 l 0.06652,-4.65653 -4.6565302,-0.06652 c -0.3577595,-0.0051 -0.6838136,-0.2 -0.8589764,-0.512247 -0.1737487,-0.312226 -0.1683146,-0.692611 0.014282,-0.999747 0.1832937,-0.306418 0.515499,-0.492611 0.8732585,-0.4875 l 4.65653,0.06652 0.06652,-4.6565302 c 0.0023,-0.359214 0.196556,-0.6902274 0.510237,-0.8667841 0.312963,-0.1758597 0.696176,-0.1703852 1.003989,0.014343 0.308509,0.1854451 0.493227,0.5218724 0.485268,0.8810056 l -0.06652,4.65653 z"
     id="path2"
     inkscape:connector-curvature="0"
     style="fill:#131415" />
</svg>
