<svg xmlns="http://www.w3.org/2000/svg" width="24" height="24" viewBox="0 0 24 24">
    <path fill="#131415" d="M12 0C5.373 0 0 5.373 0 12s5.373 12 12 12 12-5.373 12-12S18.627 0 12 0zm4.707 15.293c.253.253.351.62.259.966-.093.345-.362.614-.707.707-.345.092-.713-.006-.966-.259L12 13.414l-3.293 3.293c-.39.39-1.024.39-1.414 0-.39-.39-.39-1.024 0-1.414L10.586 12 7.293 8.707c-.253-.253-.351-.62-.259-.966.093-.345.362-.614.707-.707.345-.092.713.006.966.259L12 10.586l3.293-3.293c.252-.256.622-.358.97-.266.347.092.618.363.71.71.092.348-.01.718-.266.97L13.414 12l3.293 3.293z"/>
</svg>
