<?xml version="1.0" encoding="UTF-8" standalone="no"?>
<svg
   xmlns:dc="http://purl.org/dc/elements/1.1/"
   xmlns:cc="http://creativecommons.org/ns#"
   xmlns:rdf="http://www.w3.org/1999/02/22-rdf-syntax-ns#"
   xmlns:svg="http://www.w3.org/2000/svg"
   xmlns="http://www.w3.org/2000/svg"
   xmlns:sodipodi="http://sodipodi.sourceforge.net/DTD/sodipodi-0.dtd"
   xmlns:inkscape="http://www.inkscape.org/namespaces/inkscape"
   width="14"
   height="14"
   viewBox="0 0 14 14"
   version="1.1"
   id="svg8"
   sodipodi:docname="export-icon.svg"
   inkscape:version="0.92.3 (2405546, 2018-03-11)">
  <metadata
     id="metadata14">
    <rdf:RDF>
      <cc:Work
         rdf:about="">
        <dc:format>image/svg+xml</dc:format>
        <dc:type
           rdf:resource="http://purl.org/dc/dcmitype/StillImage" />
        <dc:title></dc:title>
      </cc:Work>
    </rdf:RDF>
  </metadata>
  <defs
     id="defs12" />
  <sodipodi:namedview
     pagecolor="#ffffff"
     bordercolor="#666666"
     borderopacity="1"
     objecttolerance="10"
     gridtolerance="10"
     guidetolerance="10"
     inkscape:pageopacity="0"
     inkscape:pageshadow="2"
     inkscape:window-width="962"
     inkscape:window-height="480"
     id="namedview10"
     showgrid="false"
     inkscape:zoom="5.3636364"
     inkscape:cx="22.372882"
     inkscape:cy="20.974576"
     inkscape:window-x="0"
     inkscape:window-y="0"
     inkscape:window-maximized="0"
     inkscape:current-layer="svg8" />
  <path
     style="fill:#4b68ef;fill-rule:nonzero"
     inkscape:connector-curvature="0"
     id="path4"
     d="M 9.4,0 V 3.5 H 13 Z M 8.2,0 h -6 C 1.537,0 1,0.522 1,1.167 V 12.833 C 1,13.478 1.537,14 2.2,14 H 5.8 V 11.667 H 4.249 c -0.243,0 -0.462,-0.142 -0.555,-0.36 -0.093,-0.218 -0.041,-0.47 0.13,-0.636 L 7,7.583 l 3.176,3.088 c 0.171,0.167 0.223,0.418 0.13,0.636 -0.093,0.217 -0.312,0.36 -0.554,0.36 H 8.2 V 14 h 3.6 C 12.463,14 13,13.478 13,12.833 V 4.667 H 8.2 Z" />
</svg>
