<svg xmlns="http://www.w3.org/2000/svg" width="13" height="13" viewBox="0 0 13 13">
    <path fill="#7A869A" fill-rule="evenodd" d="M10.636 0H2.364C1.737 0 1.136.249.692.692.25 1.136 0 1.737 0 2.364v8.272c0 .627.249 1.228.692 1.672.444.443 1.045.692 1.672.692h8.272c.627 0 1.228-.249 1.672-.692.443-.444.692-1.045.692-1.672V2.364c0-.627-.249-1.228-.692-1.672C11.864.25 11.263 0 10.636 0zM1.775 2.562c0-.436.353-.79.79-.79H5.71c.436 0 .789.354.789.79v.785c0 .436-.353.79-.79.79H2.565c-.436 0-.79-.354-.79-.79v-.785zm7.09 7.876c0 .21-.082.41-.23.558-.148.148-.35.231-.558.231H2.564c-.436 0-.79-.353-.79-.789v-.785c0-.436.354-.79.79-.79h5.513c.209 0 .41.084.558.232.148.148.23.349.23.558v.785zm2.364-3.545c0 .209-.083.41-.23.558-.149.148-.35.23-.559.23H2.564c-.436 0-.79-.353-.79-.788v-.785c0-.436.354-.79.79-.79h7.876c.21 0 .41.083.558.231.148.148.231.35.231.559v.785z"/>
</svg>
