<svg xmlns="http://www.w3.org/2000/svg" width="13" height="13" viewBox="0 0 13 13">
    <path fill="#7A869A" fill-rule="evenodd" d="M4.727 7.09H1.182c-.314 0-.614.125-.836.347C.125 7.66 0 7.96 0 8.273v3.545c0 .314.125.614.346.836.222.221.522.346.836.346h3.545c.314 0 .614-.125.836-.346.222-.222.346-.522.346-.836V8.273c0-.314-.124-.614-.346-.836-.222-.222-.522-.346-.836-.346zm0-7.09H1.182C.868 0 .568.125.346.346.125.568 0 .868 0 1.182v3.545c0 .314.125.614.346.836.222.222.522.346.836.346h3.545c.314 0 .614-.124.836-.346.222-.222.346-.522.346-.836V1.182c0-.314-.124-.614-.346-.836C5.34.125 5.04 0 4.727 0zm7.091 7.09H8.273c-.314 0-.614.125-.836.347-.222.222-.346.522-.346.836v3.545c0 .314.124.614.346.836.222.221.522.346.836.346h3.545c.314 0 .614-.125.836-.346.221-.222.346-.522.346-.836V8.273c0-.314-.125-.614-.346-.836-.222-.222-.522-.346-.836-.346zm0-7.09H8.273c-.314 0-.614.125-.836.346-.222.222-.346.522-.346.836v3.545c0 .314.124.614.346.836.222.222.522.346.836.346h3.545c.314 0 .614-.124.836-.346.221-.222.346-.522.346-.836V1.182c0-.314-.125-.614-.346-.836C12.432.125 12.132 0 11.818 0z"/>
</svg>
