<?xml version="1.0" encoding="UTF-8" standalone="no"?>
<!-- Svg Vector Icons : http://www.onlinewebfonts.com/icon -->

<svg
   xmlns:dc="http://purl.org/dc/elements/1.1/"
   xmlns:cc="http://creativecommons.org/ns#"
   xmlns:rdf="http://www.w3.org/1999/02/22-rdf-syntax-ns#"
   xmlns:svg="http://www.w3.org/2000/svg"
   xmlns="http://www.w3.org/2000/svg"
   xmlns:sodipodi="http://sodipodi.sourceforge.net/DTD/sodipodi-0.dtd"
   xmlns:inkscape="http://www.inkscape.org/namespaces/inkscape"
   version="1.1"
   x="0px"
   y="0px"
   viewBox="0 0 26 26"
   enable-background="new 0 0 1000 1000"
   xml:space="preserve"
   id="svg10"
   sodipodi:docname="offline.svg"
   width="26"
   height="26"
   inkscape:version="0.92.3 (2405546, 2018-03-11)"><metadata
   id="metadata16"><rdf:RDF><cc:Work
       rdf:about=""><dc:format>image/svg+xml</dc:format><dc:type
         rdf:resource="http://purl.org/dc/dcmitype/StillImage" /><dc:title></dc:title></cc:Work></rdf:RDF></metadata><defs
   id="defs14" /><sodipodi:namedview
   pagecolor="#ffffff"
   bordercolor="#666666"
   borderopacity="1"
   objecttolerance="10"
   gridtolerance="10"
   guidetolerance="10"
   inkscape:pageopacity="0"
   inkscape:pageshadow="2"
   inkscape:window-width="1129"
   inkscape:window-height="480"
   id="namedview12"
   showgrid="false"
   inkscape:zoom="7.552"
   inkscape:cx="4.8690061"
   inkscape:cy="12.350824"
   inkscape:window-x="0"
   inkscape:window-y="0"
   inkscape:window-maximized="0"
   inkscape:current-layer="svg10" />
<path
   d="M 12.16695,3.9732283 C 10.250118,4.2183742 8.6675737,4.9817307 7.3411953,6.3024818 6.6167811,7.0268989 6.0596336,7.8348273 5.708447,8.6596539 5.3628931,9.4788477 5.3797912,9.450929 4.9784001,9.5902777 3.4073666,10.130774 2.0530696,11.44026 1.4180439,13.033831 1.0891432,13.853024 0.99999962,14.348949 0.99999962,15.33541 c 0.005633,0.78001 0.0222859,0.958543 0.15600128,1.448835 0.5684129,2.150965 2.1955285,3.800373 4.3129339,4.385442 0.3901257,0.11143 0.607352,0.122695 2.2959375,0.139348 l 1.8668727,0.02229 0.445718,-0.445719 0.445718,-0.451353 -0.44033,-0.440087 -0.4403304,-0.44572 -1.7887496,-0.01665 -1.7887496,-0.01665 -0.445718,-0.156002 C 4.5716212,18.991292 3.7024711,18.222303 3.2009159,17.219189 2.8835255,16.583426 2.7774838,16.093134 2.7831165,15.279573 c 0,-0.679845 0.01102,-0.757724 0.2005731,-1.292833 0.2507776,-0.724417 0.4736366,-1.092258 0.9808245,-1.638387 0.6575565,-0.702131 1.5156861,-1.153484 2.3850811,-1.248261 0.1895526,-0.02229 0.3732276,-0.05584 0.4067789,-0.07812 0.033551,-0.02229 0.1280827,-0.273065 0.2005731,-0.55715 0.5794334,-2.1565981 2.0728336,-3.7614343 4.1290138,-4.4356468 2.613573,-0.8581331 5.533516,0.1503693 7.093774,2.4573367 0.401146,0.6017217 0.707761,1.3317716 0.952906,2.2903141 0.06686,0.261799 0.03894,0.245146 0.690862,0.350943 0.841477,0.133716 1.560258,0.523843 2.195529,1.198056 0.484902,0.50719 0.807925,1.047686 1.030784,1.710633 0.150614,0.468006 0.167267,0.590702 0.172899,1.242628 0.0056,0.596334 -0.01665,0.802541 -0.122694,1.159116 -0.401147,1.393487 -1.387604,2.452194 -2.713737,2.920445 l -0.445718,0.156002 -1.78875,0.01665 -1.78875,0.01665 -0.440085,0.44572 -0.44033,0.440087 0.445718,0.451353 0.445718,0.44572 1.866628,-0.02229 c 1.68834,-0.01665 1.905812,-0.02792 2.295692,-0.139349 1.326379,-0.362209 2.440674,-1.119932 3.27113,-2.212191 0.395513,-0.523843 0.863762,-1.493406 1.047437,-2.173251 0.128328,-0.495925 0.144981,-0.657559 0.144981,-1.476753 0,-0.813561 -0.01665,-0.980829 -0.144981,-1.454467 C 24.4984,12.50411 23.779618,11.3783 22.754222,10.553718 22.258299,10.157958 21.394537,9.6843197 20.892982,9.5395832 20.619918,9.4614598 20.592,9.4394187 20.530775,9.2163139 20.408325,8.815166 19.99028,7.9903395 19.622441,7.4442102 19.148804,6.7310585 18.207163,5.7891693 17.482749,5.3155307 16.546497,4.6969108 15.560284,4.2847424 14.501582,4.0785358 14.050476,3.9898816 12.568341,3.9230236 12.16695,3.9732283 Z"
   id="path2"
   inkscape:connector-curvature="0"
   style="stroke-width:0.002449;fill:#ee6d53" /><path
   d="m 10.032891,17.463845 -0.5963313,0.601722 1.1813973,1.181402 1.186786,1.18679 -1.186786,1.186791 -1.1813973,1.181402 0.5963313,0.601722 0.60172,0.596334 1.181397,-1.181403 1.186786,-1.18679 1.186785,1.18679 1.181398,1.181403 0.601719,-0.596334 0.596331,-0.601722 -1.181152,-1.180913 -1.186786,-1.18679 1.186786,-1.18679 1.181397,-1.181403 -0.596331,-0.601721 -0.60172,-0.596334 -1.181397,1.181402 -1.186786,1.187035 -1.186785,-1.187035 -1.181398,-1.181402 z"
   id="path4"
   inkscape:connector-curvature="0"
   style="stroke-width:0.002449;fill:#ee6d53" />
</svg>
