<svg xmlns="http://www.w3.org/2000/svg" width="13" height="13" viewBox="0 0 13 13">
    <path fill="#7A869A" fill-rule="evenodd" d="M12.714 11.04l-2.85-2.857c.54-.848.827-1.833.825-2.838C10.69 2.393 8.296 0 5.345 0 2.393 0 0 2.393 0 5.345c0 2.951 2.393 5.344 5.345 5.344 1.005.002 1.99-.284 2.838-.825l2.857 2.85c.471.404 1.173.377 1.612-.062.439-.439.466-1.141.062-1.612zm-7.37-2.726c-1.64 0-2.969-1.33-2.969-2.97 0-1.64 1.33-2.969 2.97-2.969 1.64 0 2.969 1.33 2.969 2.97 0 1.64-1.33 2.969-2.97 2.969z"/>
</svg>
