<?xml version="1.0" encoding="UTF-8" standalone="no"?>
<svg
   xmlns:dc="http://purl.org/dc/elements/1.1/"
   xmlns:cc="http://creativecommons.org/ns#"
   xmlns:rdf="http://www.w3.org/1999/02/22-rdf-syntax-ns#"
   xmlns:svg="http://www.w3.org/2000/svg"
   xmlns="http://www.w3.org/2000/svg"
   xmlns:sodipodi="http://sodipodi.sourceforge.net/DTD/sodipodi-0.dtd"
   xmlns:inkscape="http://www.inkscape.org/namespaces/inkscape"
   width="16"
   height="16"
   viewBox="0 0 16 16"
   version="1.1"
   id="svg6"
   sodipodi:docname="success.svg"
   inkscape:version="0.92.3 (2405546, 2018-03-11)">
  <metadata
     id="metadata12">
    <rdf:RDF>
      <cc:Work
         rdf:about="">
        <dc:format>image/svg+xml</dc:format>
        <dc:type
           rdf:resource="http://purl.org/dc/dcmitype/StillImage" />
        <dc:title></dc:title>
      </cc:Work>
    </rdf:RDF>
  </metadata>
  <defs
     id="defs10" />
  <sodipodi:namedview
     pagecolor="#ffffff"
     bordercolor="#666666"
     borderopacity="1"
     objecttolerance="10"
     gridtolerance="10"
     guidetolerance="10"
     inkscape:pageopacity="0"
     inkscape:pageshadow="2"
     inkscape:window-width="1025"
     inkscape:window-height="480"
     id="namedview8"
     showgrid="false"
     inkscape:zoom="7.8666667"
     inkscape:cx="15"
     inkscape:cy="15"
     inkscape:window-x="0"
     inkscape:window-y="0"
     inkscape:window-maximized="0"
     inkscape:current-layer="svg6" />
  <g
     id="g4"
     style="fill:none"
     transform="matrix(1.0000179,0,0,1,-7.0001429,-6.9999483)">
    <!-- <rect width="30" height="30" fill="#fff" fill-opacity=".0" rx="2"/> -->
    <path
       d="M 19.95,10.05 C 17.948,8.048 14.937,7.45 12.321,8.533 9.705,9.616 8,12.169 8,15 c 0,2.831 1.705,5.384 4.321,6.467 2.616,1.083 5.627,0.485 7.629,-1.517 2.733,-2.734 2.733,-7.166 0,-9.9 z m -1.59,2.996 -3.856,4.499 -2.77,-2.078 c -0.168,-0.125 -0.256,-0.33 -0.23,-0.537 0.024,-0.207 0.158,-0.386 0.35,-0.467 0.192,-0.082 0.413,-0.055 0.58,0.07 l 1.896,1.422 3.144,-3.668 c 0.135,-0.158 0.345,-0.232 0.55,-0.194 0.205,0.039 0.374,0.183 0.443,0.38 0.07,0.197 0.028,0.415 -0.107,0.573 z"
       id="path2"
       inkscape:connector-curvature="0"
       style="fill:#00875a" />
  </g>
</svg>
