<svg xmlns="http://www.w3.org/2000/svg" width="14" height="14" viewBox="0 0 14 14">
    <path fill="#4B68EF" d="M7 0C3.134 0 0 3.134 0 7s3.134 7 7 7 7-3.134 7-7-3.134-7-7-7zm2.746 8.92c.147.148.205.363.15.564-.053.202-.21.359-.412.413-.201.054-.416-.004-.563-.151L7 7.825l-1.921 1.92c-.228.229-.597.229-.825 0-.228-.227-.228-.596 0-.824L6.175 7l-1.92-1.92c-.148-.148-.206-.363-.152-.564.054-.202.211-.359.413-.413.201-.054.416.004.563.151L7 6.175l1.92-1.92c.148-.15.364-.21.566-.156.203.054.361.212.415.415.054.202-.006.418-.155.565L7.825 7l1.92 1.92z"/>
</svg>
