<svg xmlns="http://www.w3.org/2000/svg" width="30" height="30" viewBox="0 0 30 30">
    <g fill="none">
        <rect width="30" height="30" fill="#000" fill-opacity=".3" rx="2"/>
        <path fill="#FFF" d="M19.95 10.05c-2.002-2.002-5.013-2.6-7.629-1.517C9.705 9.616 8 12.169 8 15c0 2.831 1.705 5.384 4.321 6.467 2.616 1.083 5.627.485 7.629-1.517 2.733-2.734 2.733-7.166 0-9.9zm-1.59 2.996l-3.856 4.499-2.77-2.078c-.168-.125-.256-.33-.23-.537.024-.207.158-.386.35-.467.192-.082.413-.055.58.07l1.896 1.422 3.144-3.668c.135-.158.345-.232.55-.194.205.039.374.183.443.38.07.197.028.415-.107.573z"/>
    </g>
</svg>
