<svg xmlns="http://www.w3.org/2000/svg" width="13" height="13" viewBox="0 0 13 13">
    <g fill="none" fill-rule="evenodd" transform="translate(1 1)">
        <circle cx="5.5" cy="5.5" r="5.5" fill="#FFF" stroke="#FF951E"/>
        <path fill="#FF951E" fill-rule="nonzero" d="M5.756 6.486c.051 0 .096-.019.133-.056.037-.037.056-.082.056-.133V3.189c0-.051-.019-.096-.056-.133C5.852 3.019 5.807 3 5.756 3h-.532c-.051 0-.096.019-.133.056-.037.037-.056.082-.056.133v3.108c0 .051.019.096.056.133.037.037.082.056.133.056h.532zM5.791 7.9c.051 0 .096-.019.133-.056.037-.037.056-.082.056-.133v-.616c0-.051-.019-.096-.056-.133-.037-.037-.082-.056-.133-.056h-.602c-.051 0-.096.019-.133.056-.037.037-.056.082-.056.133v.616c0 .051.019.096.056.133.037.037.082.056.133.056h.602z"/>
    </g>
</svg>
